<svg width="28" height="29" viewBox="0 0 28 29" fill="none" xmlns="http://www.w3.org/2000/svg">
<g filter="url(#filter0_d_0_247)">
<path fill-rule="evenodd" clip-rule="evenodd" d="M8.99858 11.4673C8.20983 11.4673 7.57042 10.8279 7.57042 10.0391C7.57042 9.25034 8.20983 8.61093 8.99858 8.61093C9.78736 8.61093 10.4267 9.25034 10.4267 10.0391C10.4267 10.8279 9.78736 11.4673 8.99858 11.4673ZM23.2803 9.32498H11.7535C11.3663 7.80352 9.81891 6.88398 8.29741 7.27126C7.28837 7.52808 6.50046 8.31599 6.24364 9.32498H4.71406C4.31967 9.32498 4 9.64469 4 10.0391C4 10.4335 4.31967 10.7532 4.71406 10.7532H6.24364C6.63088 12.2747 8.17828 13.1942 9.69975 12.807C10.7088 12.5501 11.4967 11.7622 11.7535 10.7532H23.2803C23.6747 10.7532 23.9944 10.4335 23.9944 10.0391C23.9944 9.64469 23.6747 9.32498 23.2803 9.32498Z" fill="white"/>
<mask id="mask0_0_247" style="mask-type:alpha" maskUnits="userSpaceOnUse" x="4" y="0" width="20" height="6">
<path fill-rule="evenodd" clip-rule="evenodd" d="M4 0.0418701H23.9944V5.75457H4V0.0418701Z" fill="white"/>
</mask>
<g mask="url(#mask0_0_247)">
<path fill-rule="evenodd" clip-rule="evenodd" d="M18.2817 4.32629C17.4929 4.32629 16.8535 3.68688 16.8535 2.89814C16.8535 2.10935 17.4929 1.46993 18.2817 1.46993C19.0705 1.46993 19.7099 2.10935 19.7099 2.89814C19.7099 3.68688 19.0705 4.32629 18.2817 4.32629ZM23.2803 2.18404H21.0367C20.6494 0.662529 19.102 -0.257011 17.5805 0.13027C16.5715 0.38709 15.7836 1.175 15.5267 2.18404H4.71406C4.31967 2.18404 4 2.50374 4 2.89814C4 3.29249 4.31967 3.61219 4.71406 3.61219H15.5267C15.914 5.1337 17.4614 6.0532 18.9829 5.66596C19.9919 5.40914 20.7798 4.62123 21.0367 3.61219H23.2803C23.6747 3.61219 23.9944 3.29249 23.9944 2.89814C23.9944 2.50374 23.6747 2.18404 23.2803 2.18404Z" fill="white"/>
</g>
<mask id="mask1_0_247" style="mask-type:alpha" maskUnits="userSpaceOnUse" x="4" y="14" width="20" height="7">
<path fill-rule="evenodd" clip-rule="evenodd" d="M4 14.3236H23.9944V20.0363H4V14.3236Z" fill="white"/>
</mask>
<g mask="url(#mask1_0_247)">
<path fill-rule="evenodd" clip-rule="evenodd" d="M16.8536 18.6081C16.0648 18.6081 15.4254 17.9687 15.4254 17.18C15.4254 16.3912 16.0648 15.7518 16.8536 15.7518C17.6423 15.7518 18.2818 16.3912 18.2818 17.18C18.2818 17.9687 17.6423 18.6081 16.8536 18.6081ZM23.2803 16.4659H19.6085C19.2213 14.9444 17.6738 14.0249 16.1524 14.4121C15.1433 14.669 14.3554 15.4569 14.0986 16.4659H4.7141C4.31971 16.4659 4 16.7856 4 17.18C4 17.5744 4.31971 17.8941 4.7141 17.8941H14.0986C14.4859 19.4156 16.0333 20.335 17.5548 19.9478C18.5638 19.691 19.3517 18.9031 19.6085 17.8941H23.2803C23.6747 17.8941 23.9944 17.5744 23.9944 17.18C23.9944 16.7856 23.6747 16.4659 23.2803 16.4659Z" fill="white"/>
</g>
</g>
<defs>
<filter id="filter0_d_0_247" x="0" y="0.0418701" width="27.9944" height="27.9944" filterUnits="userSpaceOnUse" color-interpolation-filters="sRGB">
<feFlood flood-opacity="0" result="BackgroundImageFix"/>
<feColorMatrix in="SourceAlpha" type="matrix" values="0 0 0 0 0 0 0 0 0 0 0 0 0 0 0 0 0 0 127 0" result="hardAlpha"/>
<feOffset dy="4"/>
<feGaussianBlur stdDeviation="2"/>
<feComposite in2="hardAlpha" operator="out"/>
<feColorMatrix type="matrix" values="0 0 0 0 0 0 0 0 0 0 0 0 0 0 0 0 0 0 0.25 0"/>
<feBlend mode="normal" in2="BackgroundImageFix" result="effect1_dropShadow_0_247"/>
<feBlend mode="normal" in="SourceGraphic" in2="effect1_dropShadow_0_247" result="shape"/>
</filter>
</defs>
</svg>
