<svg width="305" height="252" fill="none" xmlns="http://www.w3.org/2000/svg"><defs><linearGradient id="a" x1="242" y1="217.997" x2="242" y2="9" gradientUnits="userSpaceOnUse"><stop stop-color="gray" stop-opacity=".25"/><stop offset=".54" stop-color="gray" stop-opacity=".12"/><stop offset="1" stop-color="gray" stop-opacity=".1"/></linearGradient><linearGradient id="b" x1="105101" y1="154963" x2="105101" y2="37480.2" gradientUnits="userSpaceOnUse"><stop stop-color="gray" stop-opacity=".25"/><stop offset=".54" stop-color="gray" stop-opacity=".12"/><stop offset="1" stop-color="gray" stop-opacity=".1"/></linearGradient></defs><path opacity=".1" d="M284.854 139.239c-11.715 18.88-9.52 44.601-4.375 64.881 1.722 6.79 3.705 13.958 2.233 21.558-1.8 9.292-8.363 16.589-15.005 20.768-12.11 7.599-25.937 7.388-36.007-.557-8.695-6.863-14.421-18.833-23.299-25.328-14.845-10.872-35.229-4.282-52.929 5.878-12.517 7.171-26.294 16.297-37.864 11.13-8.139-3.628-13.214-13.864-15.583-25.003-1.144-5.378-1.835-11.253-4.457-15.35-1.56-2.435-3.705-4.065-5.928-5.403-20.293-12.19-47.75-1.998-67.319-15.802-13.218-9.321-20.732-28.572-23.202-49.158-2.47-20.585-.439-42.612 2.104-64.299 1.81-15.419 4.257-31.913 12.38-44.453C24.199 4.838 37.745-1.094 49.52.165c11.775 1.259 21.998 8.691 30.81 17.776 11.014 11.353 20.947 25.853 35.201 29.515 9.709 2.496 20.312-.393 30.637-2.026 17.239-2.731 34.237-1.948 51.116-.922 16.159.982 32.415 2.203 47.471 7.867 10.654 4.012 18.831 12.363 28.774 17.794 6.481 3.54 13.792 3.99 19.831 8.71 7.438 5.815 13.875 16.548 10.897 30.117-2.839 12.908-13.187 20.224-19.402 30.243Z" fill="#6C63FF"/><path d="M211 97s32.411-27.017 39.618-40.64C257.826 42.74 267 31 267 31" stroke="#535461" stroke-width="2"/><path d="M260 62.904 246 60s3.304 13.585 14 2.904ZM239.873 47 247 57.978S233.067 59.013 239.873 47ZM265 51.547 254 49s6.909 13.882 11 2.547ZM246.138 40 252 47.965s-10.377 1.02-5.862-7.965ZM261 38s9.601.531 10.731 1.597c1.129 1.065-1.432 7.31-5.083 6.29C262.996 44.869 261 38 261 38ZM255.888 27s4.267 7.273 4.108 8.658c-.16 1.385-6.504 2.94-7.785-2.3-1.281-5.237 3.677-6.358 3.677-6.358Z" fill="#6C63FF"/><circle cx="267.5" cy="34.5" r="3.5" transform="rotate(-72.474 267.5 34.5)" fill="#FFD037"/><circle cx="262.5" cy="30.5" r="3.5" transform="rotate(-72.474 262.5 30.5)" fill="#FFD037"/><path d="M109.707 201.443s5.092-15.277-27.188-33.694c0 0-32.776-9.641-29.424-42.749 0 0-37.784 27.919-12.217 63.482s47.635 27.801 47.635 27.801l21.194-14.84Z" fill="#6C63FF"/><path d="M101 207s-15.723-16.892-30.794-23.422a30.034 30.034 0 0 1-8.187-5.421c-9.608-8.728-13.798-21.898-11.32-34.601L54.32 125" stroke="#535461" stroke-width="2"/><path d="M62 9h180v209H62V9Z" fill="url(#a)"/><path d="M62 12h176v203H62V12Z" fill="#F7F7FD"/><path d="M74 37h44v5H74v-5ZM74 44h76v5H74v-5Z" fill="#E2E2EC"/><path d="M199 32h32v27h-32V32Z" fill="#fff"/><path fill-rule="evenodd" clip-rule="evenodd" d="M230.111 58.129V32H231v27h-32v-.871h31.111Z" fill="#E2E2EC"/><path d="M168 32h32v27h-32V32Z" fill="#fff"/><path fill-rule="evenodd" clip-rule="evenodd" d="M198.111 58.129V32H199v27h-32v-.871h31.111Z" fill="#E2E2EC"/><path d="M199 60h32v27h-32V60Z" fill="#fff"/><path fill-rule="evenodd" clip-rule="evenodd" d="M230.111 86.129V60H231v27h-32v-.871h31.111Z" fill="#E2E2EC"/><path d="M168 60h32v27h-32V60Z" fill="#fff"/><path fill-rule="evenodd" clip-rule="evenodd" d="M198.111 86.129V60H199v27h-32v-.871h31.111Z" fill="#E2E2EC"/><path d="M135 60h32v27h-32V60Z" fill="#fff"/><path fill-rule="evenodd" clip-rule="evenodd" d="M166.111 86.129V60H167v27h-32v-.871h31.111Z" fill="#E2E2EC"/><path d="M104 60h32v27h-32V60Z" fill="#fff"/><path fill-rule="evenodd" clip-rule="evenodd" d="M134.111 86.129V60H135v27h-32v-.871h31.111Z" fill="#E2E2EC"/><path d="M72 60h32v27H72V60Z" fill="#fff"/><path fill-rule="evenodd" clip-rule="evenodd" d="M103.111 86.129V60H104v27H72v-.871h31.111Z" fill="#E2E2EC"/><path d="M199 88h32v27h-32V88Z" fill="#fff"/><path fill-rule="evenodd" clip-rule="evenodd" d="M230.111 114.129V88H231v27h-32v-.871h31.111Z" fill="#E2E2EC"/><path d="M168 88h32v27h-32V88Z" fill="#fff"/><path fill-rule="evenodd" clip-rule="evenodd" d="M198.111 114.129V88H199v27h-32v-.871h31.111Z" fill="#E2E2EC"/><path d="M135 88h32v27h-32V88Z" fill="#fff"/><path fill-rule="evenodd" clip-rule="evenodd" d="M166.111 114.129V88H167v27h-32v-.871h31.111Z" fill="#E2E2EC"/><path d="M104 88h32v27h-32V88Z" fill="#fff"/><path fill-rule="evenodd" clip-rule="evenodd" d="M134.111 114.129V88H135v27h-32v-.871h31.111Z" fill="#E2E2EC"/><path d="M72 88h32v27H72V88Z" fill="#fff"/><path fill-rule="evenodd" clip-rule="evenodd" d="M103.111 114.129V88H104v27H72v-.871h31.111Z" fill="#E2E2EC"/><path d="M199 116h32v27h-32v-27Z" fill="#fff"/><path fill-rule="evenodd" clip-rule="evenodd" d="M230.111 142.129V116H231v27h-32v-.871h31.111Z" fill="#E2E2EC"/><path d="M168 116h32v27h-32v-27Z" fill="#fff"/><path fill-rule="evenodd" clip-rule="evenodd" d="M198.111 142.129V116H199v27h-32v-.871h31.111Z" fill="#E2E2EC"/><path d="M135 116h32v27h-32v-27Z" fill="#fff"/><path fill-rule="evenodd" clip-rule="evenodd" d="M166.111 142.129V116H167v27h-32v-.871h31.111Z" fill="#E2E2EC"/><path d="M104 116h32v27h-32v-27Z" fill="#fff"/><path fill-rule="evenodd" clip-rule="evenodd" d="M134.111 142.129V116H135v27h-32v-.871h31.111Z" fill="#E2E2EC"/><path d="M72 116h32v27H72v-27Z" fill="#fff"/><path fill-rule="evenodd" clip-rule="evenodd" d="M103.111 142.129V116H104v27H72v-.871h31.111Z" fill="#E2E2EC"/><path d="M199 141h32v27h-32v-27Z" fill="#fff"/><path fill-rule="evenodd" clip-rule="evenodd" d="M230.111 167.129V141H231v27h-32v-.871h31.111Z" fill="#E2E2EC"/><path d="M168 141h32v27h-32v-27Z" fill="#fff"/><path fill-rule="evenodd" clip-rule="evenodd" d="M198.111 167.129V141H199v27h-32v-.871h31.111Z" fill="#E2E2EC"/><path d="M135 141h32v27h-32v-27Z" fill="#fff"/><path fill-rule="evenodd" clip-rule="evenodd" d="M166.111 167.129V141H167v27h-32v-.871h31.111Z" fill="#E2E2EC"/><path d="M104 141h32v27h-32v-27Z" fill="#fff"/><path fill-rule="evenodd" clip-rule="evenodd" d="M134.111 167.129V141H135v27h-32v-.871h31.111Z" fill="#E2E2EC"/><path d="M72 141h32v27H72v-27Z" fill="#fff"/><path fill-rule="evenodd" clip-rule="evenodd" d="M103.111 167.129V141H104v27H72v-.871h31.111Z" fill="#E2E2EC"/><path d="M199 170h32v27h-32v-27Z" fill="#fff"/><path fill-rule="evenodd" clip-rule="evenodd" d="M230.111 196.129V170H231v27h-32v-.871h31.111Z" fill="#E2E2EC"/><path d="M168 170h32v27h-32v-27Z" fill="#fff"/><path fill-rule="evenodd" clip-rule="evenodd" d="M198.111 196.129V170H199v27h-32v-.871h31.111Z" fill="#E2E2EC"/><path d="M135 170h32v27h-32v-27Z" fill="#fff"/><path fill-rule="evenodd" clip-rule="evenodd" d="M166.111 196.129V170H167v27h-32v-.871h31.111Z" fill="#E2E2EC"/><path d="M104 170h32v27h-32v-27Z" fill="#fff"/><path fill-rule="evenodd" clip-rule="evenodd" d="M134.111 196.129V170H135v27h-32v-.871h31.111Z" fill="#E2E2EC"/><path d="M72 170h32v27H72v-27Z" fill="#fff"/><path fill-rule="evenodd" clip-rule="evenodd" d="M103.111 196.129V170H104v27H72v-.871h31.111Z" fill="#E2E2EC"/><path d="M137.882 220.73c.919-.581 1.783-1.266 2.05-2.101.284-.918-.346-1.86-1.433-2.142-1.314-.342-2.718.268-3.785.903-1.066.634-2.284 1.338-3.678 1.207 1.442-.87 2.13-2.281 1.731-3.563a1.34 1.34 0 0 0-.482-.723c-.729-.535-2.053-.302-2.926.115-2.78 1.339-3.554 3.895-3.57 6.205-.279-.832-.045-1.7-.051-2.556-.007-.857-.351-1.802-1.411-2.262a5.929 5.929 0 0 0-2.152-.345c-1.25-.032-2.641.053-3.493.674-1.06.771-.784 2.067.138 2.915.923.849 2.327 1.381 3.615 1.968.983.447 1.979.969 2.57 1.675.078.094.142.194.193.3h7.83a24.075 24.075 0 0 0 4.854-2.27Z" fill="#6C63FF"/><circle cx="76.5" cy="64.5" r="2.5" fill="#FC6681"/><circle cx="80.5" cy="64.5" r="2.5" fill="#FFD037"/><circle cx="139.5" cy="90.5" r="2.5" fill="#6C63FF"/><circle cx="145.5" cy="90.5" r="2.5" fill="#6C63FF"/><circle cx="235.5" cy="143.5" r="2.5" fill="#6C63FF"/><circle cx="236.5" cy="140.5" r="2.5" fill="#6C63FF"/><circle cx="239.5" cy="137.5" r="2.5" fill="#6C63FF"/><circle cx="204.5" cy="64.5" r="2.5" fill="#6C63FF"/><circle cx="208.5" cy="64.5" r="2.5" fill="#6C63FF"/><circle cx="213.5" cy="64.5" r="2.5" fill="#6C63FF"/><circle cx="217.5" cy="64.5" r="2.5" fill="#6C63FF"/><circle cx="204.5" cy="119.5" r="2.5" fill="#6C63FF"/><circle cx="208.5" cy="119.5" r="2.5" fill="#6C63FF"/><circle cx="213.5" cy="119.5" r="2.5" fill="#6C63FF"/><circle cx="217.5" cy="119.5" r="2.5" fill="#6C63FF"/><circle cx="108.5" cy="90.5" r="2.5" fill="#FFD037"/><circle cx="76.5" cy="119.5" r="2.5" fill="#FC6681"/><path fill-rule="evenodd" clip-rule="evenodd" d="M243.065 143.909c-3.916 2.488-7.009 1.735-8.991.577a2.109 2.109 0 0 1-.333-3.442 16.894 16.894 0 0 0 2.908-3.53c1.7-2.645 4.552-4.076 6.502-4.785v-.86l-.12-.022.053-.8h-.053l.139-2.112v-.019l.695-10.553s2.502-7.016-1.945-13.493c-4.446-6.477-.279-12.686 3.889-15.115 0 0 1.947-10.258.279-12.687a71.784 71.784 0 0 1 6.977-3.52c.036-.128.07-.258.102-.39.034-.73.077-1.468.119-2.195l.039-.673a10.36 10.36 0 0 0-.45-2.083c-4.078-1.566-6.773-5.44-6.793-9.768-.003-1.23.216-2.452.647-3.606a4.558 4.558 0 0 1-.479-1.152c-.27-1.095.025-2.259.659-3.367 1.104-2.41 3.882-4.656 5.899-5.472 2.89-1.161 7.238-.894 10.244-.533 1.688.2 3.616.762 4.225 2.306.134.336.19.694.247 1.052.039.243.077.487.14.724.412 1.548 1.73 2.553 3.064 3.57.699.533 1.402 1.07 1.982 1.689 1.487 1.591 2.144 3.744 2.626 5.843a53.373 53.373 0 0 1 .973 18.35 82.805 82.805 0 0 1-.634 4.215c1.012 1.412 1.928 3.912 1.51 8.255l3.333 15.655 1.389 9.179s.834 3.781-2.499 7.019c-2.128 2.065-4.707 5.558-6.292 7.817a18.449 18.449 0 0 1 1.034 6.21 70.967 70.967 0 0 1-.156 2.777 24.544 24.544 0 0 1-1.065 5.532c-.391 3.769-1.161 8.588-2.668 11.664l-.564 16.464s.834 15.116 2.499 18.084-3.612 28.072-3.612 28.072v3.505l.891 2.595.222-.166c4.167 5.136 0 7.019 0 7.019s-1.132.053-2.947.122a3.302 3.302 0 0 1-1.776 3.659s-23.612 1.08-27.779 0c-4.168-1.079-3.054-4.857-.834-4.587.847.103 2.102-.12 3.327-.433-1.297-1.503-.26-3.546 1.395-3.345 2.22.269 7.219-1.692 7.219-1.692l.022.032c.16-.061.324-.11.491-.148a56.156 56.156 0 0 0 5.497-1.531c1.072-2.275 3.542-8.385 1.769-13.126-.802-2.143-1.062-4.992-1.062-7.757a87.788 87.788 0 0 0-3.66-24.642l-3.33-11.328s-4.723-13.778-5.002-17.544l.038-5.51Zm24.461-27.024.001.004-.004-.003.003-.001Zm0 0c1.643-.486 4.105-1.63 3.488-4.018a13.304 13.304 0 0 1-.263-1.289c-.717-.002-1.432-.01-2.146-.022a9.298 9.298 0 0 0-1.079 5.329Z" fill="url(#b)"/><path d="m267.898 222.849 1.102 2.79-3.598 3.035L253.547 231l-8.547-.698.553-2.558c.333-1.121 1.381-1.991 2.715-2.254 3.513-.696 10.212-2.285 11.619-4.49l8.011 1.849Z" fill="#DB8B8B"/><path opacity=".1" d="m267.898 222.849 1.102 2.79-3.598 3.035L253.547 231l-8.547-.698.553-2.558c.333-1.121 1.381-1.991 2.715-2.254 3.513-.696 10.212-2.285 11.619-4.49l8.011 1.849Z" fill="#000"/><path d="m248.075 230.043 1.645-2.017-1.645-2.338s-4.931 1.832-7.123 1.58c-2.191-.251-3.286 3.292.823 4.289 4.109.997 27.399 0 27.399 0s4.109-1.766 0-6.557l-3.576 2.523s-6.028 3.026-9.041 2.523l-8.482-.003Z" fill="#2E3037"/><path d="m243 234.302 8.547.698 11.855-2.324 3.598-3.033-.291-.739-.412-1.037-.412-1.009L257.89 225a4.645 4.645 0 0 1-1.636 1.379c-2.597 1.497-7.261 2.577-9.999 3.118-.111.023-.22.051-.327.085-1.179.334-2.074 1.151-2.375 2.167l-.553 2.553Z" fill="#DB8B8B"/><path opacity=".1" d="m243 234.199 8.547.801 11.855-2.669 3.598-3.483-.291-.848-3.291 2.45s-6.064 3.201-9.097 2.669h-8.563l1.655-2.133-1.485-2.217c-1.179.383-2.074 1.322-2.375 2.489l-.553 2.941Z" fill="#000"/><path d="m246.075 235.043 1.645-2.017-1.645-2.338s-4.931 1.832-7.123 1.58c-2.191-.251-3.286 3.292.823 4.289 4.109.997 27.399 0 27.399 0s4.109-1.766 0-6.557l-3.576 2.523s-6.028 3.026-9.041 2.523l-8.482-.003Z" fill="#2E3037"/><path d="M250 79.855s12 1.306 10.25-3.921a9.828 9.828 0 0 1-.371-4.617A13.132 13.132 0 0 1 262 66l-11.25 1.83a15.102 15.102 0 0 1 1.525 3.779c1.34 5.544-2.275 8.246-2.275 8.246Z" fill="#DB8B8B"/><path d="M271 141s-.258 11.266-2.842 16.768l-.518 15.982s.776 14.673 2.327 17.555c1.551 2.882-3.372 27.248-3.372 27.248v4.194s-8.277 3.143-10.595-.526l2.327-31.18-1.033-43.23L271 141Z" fill="#474463"/><path opacity=".1" d="M271 141s-.258 11.266-2.842 16.768l-.518 15.982s.776 14.673 2.327 17.555c1.551 2.882-3.372 27.248-3.372 27.248v4.194s-8.277 3.143-10.595-.526l2.327-31.18-1.033-43.23L271 141Z" fill="#000"/><path d="m276.989 106 1.6 4.391 1.331 9.329c.365 2.636-.529 5.292-2.4 7.131-3.196 3.291-7.461 10.149-7.461 10.149L265 121.376s5.059-.823 4.265-4.391c-.794-3.567-.537-10.175-.537-10.175l8.261-.81Z" fill="#F95F5F"/><path opacity=".05" d="m301.989 122 1.6 4.391 1.331 9.329c.365 2.636-.529 5.292-2.4 7.131-3.196 3.291-7.461 10.149-7.461 10.149L290 137.376s5.059-.823 4.265-4.391c-.794-3.567-.537-10.175-.537-10.175l8.261-.81Z" fill="#000"/><path opacity=".1" d="M255 227.016c3.177 6.84 8.124 2.965 9 2.193l-.359-1.497-7.183-2.712c-.363.82-.863 1.51-1.458 2.016Z" fill="#000"/><path d="M243 152.433c.249 3.711 4.499 17.228 4.499 17.228l2.999 11.124a93.495 93.495 0 0 1 3.295 24.197c0 2.714.234 5.513.958 7.617 1.999 5.831-1.999 13.784-1.999 13.784 3.5 6.627 9.491 2.12 9.491 2.12v-4.239s4.745-23.062 3.5-27.566c-1.246-4.503-1.75-16.699-1.75-16.699v-22.015c4.004-4.231 6.439-9.848 6.86-15.825.059-.868.107-1.78.139-2.727.202-5.975-3.654-12.991-5.16-15.489-.362-.603-.594-.943-.594-.943l-22.072 9.284-.05.022V135.215L243 152.433Z" fill="#474463"/><path opacity=".1" d="M252 68.04a18.317 18.317 0 0 1 1.491 4.217c2.414 1.093 5.095.976 7.435-.326.305-2.14 1.014-4.168 2.074-5.931l-11 2.04Z" fill="#000"/><circle cx="256" cy="63" r="11" fill="#DB8B8B"/><path opacity=".1" d="m243 133.718.117.019c11.475 2.01 25.883-8.174 25.883-8.174a11.512 11.512 0 0 1-.997-1.734c-.396-.53-.649-.829-.649-.829l-24.166 8.161-.061.815-.127 1.742Z" fill="#000"/><path d="M245.697 81.247s14.589-9.084 19.278-5.344l6.512 8.557s4.17 1.335 3.4 9.883L278 109.83l-9.378 2.406s-5.471 5.344-1.042 13.089c0 0-13.807 11.753-24.749 9.35l.782-12.554s2.346-6.944-1.823-13.356c-4.17-6.411-.26-12.553 3.647-14.959 0-.003 1.821-10.155.26-12.56Z" fill="#E54E4E"/><path d="M245.356 135s-5.411.966-7.988 4.83a15.258 15.258 0 0 1-2.697 3.152 1.855 1.855 0 0 0-.662 1.599c.06.601.419 1.14.968 1.455 2.045 1.146 5.381 1.86 9.594-1.384 7.227-5.546.785-9.652.785-9.652Z" fill="#DB8B8B"/><path opacity=".1" d="M252.832 84.201s5.204-.538 6.504 13.42c1.3 13.957 3.396 17.177 3.396 17.177s1.299 7.248-1.822 11.54c-3.121 4.293-9.106 13.42-9.106 13.42s-6.504 1.879-7.804-4.831l8.066-15.566s1.3-5.369-1.821-9.126c-3.121-3.758-5.479-28.718 2.587-26.034Z" fill="#000"/><path d="M252.832 84.201s5.204-.538 6.504 13.42c1.3 13.957 3.396 17.177 3.396 17.177s1.299 7.248-1.822 11.54c-3.121 4.293-9.106 13.42-9.106 13.42s-6.504 1.879-7.804-4.831l8.066-15.566s1.3-5.369-1.821-9.126c-3.121-3.758-5.47-28.718 2.587-26.034Z" fill="#F95F5F"/><path opacity=".1" d="M249.068 95s-.717 8.444 2.508 13.089c3.225 4.646 3.238 10.634 0 13.911M246 87s2.249-2.352 8.72-2.648C261.19 84.055 264 82 264 82" fill="#000"/><path opacity=".1" d="M260.613 49.308c1.589.2 3.414.758 3.978 2.284.211.562.218 1.18.363 1.761.593 2.335 3.165 3.424 4.751 5.21 1.399 1.586 2.017 3.709 2.482 5.787a55.562 55.562 0 0 1 .931 18.168c-.509 4.442-1.551 8.801-1.843 13.256-.292 4.455.242 9.141 2.622 12.885 1.024 1.609 2.377 3.024 3.103 4.794-1.499 1.244-3.568 1.422-5.502 1.488a96.096 96.096 0 0 1-6.748 0c-1.18-.041-2.411-.12-3.429-.729a5.366 5.366 0 0 1-1.8-1.977c-1.288-2.221-1.61-4.918-1.551-7.507.059-2.589.456-5.165.502-7.758.025-1.412-.083-2.912-.878-4.067-.574-.835-1.446-1.396-2.19-2.072-2.793-2.538-3.761-6.606-3.854-10.43-.093-3.823.524-7.652.208-11.463-.125-1.491-.671-3.284-2.104-3.573-.453-.091-.931 0-1.366-.177-1.151-.454-1.039-2.113-1.368-3.329-.369-1.364-1.508-2.417-1.828-3.807-.754-3.236 3.274-7.098 5.915-8.224 2.684-1.149 6.776-.876 9.606-.52Z" fill="#000"/><path d="M260.613 49.31c1.589.2 3.414.758 3.978 2.284.211.562.218 1.18.363 1.761.593 2.335 3.165 3.424 4.751 5.21 1.399 1.586 2.017 3.709 2.482 5.787a55.558 55.558 0 0 1 .931 18.167c-.509 4.442-1.551 8.801-1.843 13.256-.292 4.454.242 9.14 2.622 12.884 1.024 1.609 2.377 3.024 3.103 4.794-1.499 1.244-3.568 1.422-5.502 1.488a96.096 96.096 0 0 1-6.748 0c-1.18-.041-2.411-.12-3.429-.729a5.366 5.366 0 0 1-1.8-1.977c-1.288-2.221-1.61-4.918-1.551-7.507.059-2.589.456-5.165.502-7.757.025-1.412-.083-2.913-.878-4.068-.574-.834-1.446-1.396-2.19-2.071-2.793-2.538-3.761-6.606-3.854-10.43-.093-3.822.524-7.652.208-11.462-.125-1.491-.671-3.284-2.104-3.573-.453-.092-.931 0-1.366-.177-1.151-.454-1.039-2.113-1.368-3.329-.369-1.364-1.508-2.417-1.828-3.807-.754-3.236 3.274-7.097 5.915-8.224 2.684-1.151 6.776-.878 9.606-.52Z" fill="#472727"/></svg>