<svg width="24" height="24" fill="none" xmlns="http://www.w3.org/2000/svg"><mask id="a" style="mask-type:alpha" maskUnits="userSpaceOnUse" x="0" y="0" width="11" height="11"><path fill-rule="evenodd" clip-rule="evenodd" d="M0 .084h10.582v10.582H0V.084z" fill="#fff"/></mask><g mask="url(#a)"><path fill-rule="evenodd" clip-rule="evenodd" d="M9.7.084H.882A.882.882 0 0 0 0 .966v8.819c0 .487.395.881.882.881H9.7a.882.882 0 0 0 .882-.881V.966A.882.882 0 0 0 9.7.084z" fill="#8E8E93"/></g><mask id="b" style="mask-type:alpha" maskUnits="userSpaceOnUse" x="12" y="0" width="11" height="11"><path fill-rule="evenodd" clip-rule="evenodd" d="M12.346.084h10.582v10.582H12.346V.084z" fill="#fff"/></mask><g mask="url(#b)"><path fill-rule="evenodd" clip-rule="evenodd" d="M13.228.084a.882.882 0 0 0-.882.882v8.819c0 .487.395.881.882.881h8.818a.882.882 0 0 0 .882-.881V.966a.882.882 0 0 0-.882-.882h-8.818z" fill="#8E8E93"/></g><mask id="c" style="mask-type:alpha" maskUnits="userSpaceOnUse" x="0" y="12" width="11" height="12"><path fill-rule="evenodd" clip-rule="evenodd" d="M0 12.43h10.582v10.582H0V12.43z" fill="#fff"/></mask><g mask="url(#c)"><path fill-rule="evenodd" clip-rule="evenodd" d="M9.7 12.43H.882a.882.882 0 0 0-.882.882v8.818c0 .488.395.882.882.882H9.7a.882.882 0 0 0 .882-.882v-8.818a.882.882 0 0 0-.882-.882z" fill="#8E8E93"/></g><mask id="d" style="mask-type:alpha" maskUnits="userSpaceOnUse" x="12" y="12" width="11" height="12"><path fill-rule="evenodd" clip-rule="evenodd" d="M12.346 12.43h10.582v10.582H12.346V12.43z" fill="#fff"/></mask><g mask="url(#d)"><path fill-rule="evenodd" clip-rule="evenodd" d="M22.046 12.43h-8.818a.882.882 0 0 0-.882.882v8.818c0 .488.395.882.882.882h8.818a.882.882 0 0 0 .882-.882v-8.818a.882.882 0 0 0-.882-.882z" fill="#8E8E93"/></g></svg>