<svg width="19" height="24" fill="none" xmlns="http://www.w3.org/2000/svg"><path fill-rule="evenodd" clip-rule="evenodd" d="M9.127 11.738c2.668 0 4.832-2.628 4.832-5.87C13.96 2.629 13.25 0 9.127 0 5.006 0 4.295 2.628 4.295 5.869c0 3.241 2.164 5.869 4.832 5.869z" fill="#8E8E93"/><path fill-rule="evenodd" clip-rule="evenodd" d="M.006 21.097c-.006-.973-.01-.274 0 0z" fill="#231F20"/><path fill-rule="evenodd" clip-rule="evenodd" d="M11.773 12.188S10.979 13.2 9.127 13.2c-1.851 0-2.646-1.012-2.646-1.012C.9 13.195.118 14.78.015 20.278c-.009.45-.013.473-.014.42v.594S1.346 24 9.128 24c7.782 0 9.125-2.708 9.125-2.708v-.439c0 .032-.004-.03-.01-.391-.089-5.647-.826-7.256-6.469-8.274z" fill="#8E8E93"/></svg>