<svg width="19" height="24" fill="none" xmlns="http://www.w3.org/2000/svg"><path fill-rule="evenodd" clip-rule="evenodd" d="m10.633 1.406-.166-.468A1.41 1.41 0 0 0 9.141 0a1.41 1.41 0 0 0-1.327.938l-.166.468h-1.32c-.777 0-1.406.63-1.406 1.407v.703c0 .388.315.703.703.703h7.031a.703.703 0 0 0 .703-.703v-.704c0-.776-.63-1.406-1.406-1.406h-1.32z" fill="#8E8E93"/><path fill-rule="evenodd" clip-rule="evenodd" d="M14.766 9.844h-4.22a.703.703 0 1 1 0-1.406h4.22a.703.703 0 1 1 0 1.406zm0 4.922h-4.22a.703.703 0 1 1 0-1.407h4.22a.703.703 0 1 1 0 1.407zm0 4.921h-4.22a.703.703 0 1 1 0-1.406h4.22a.703.703 0 1 1 0 1.407zM8.23 8.232 5.42 11.044a.701.701 0 0 1-.994 0L3.019 9.638a.703.703 0 1 1 .994-.995l.909.91 2.315-2.316a.703.703 0 1 1 .994.994zm0 4.922L5.42 15.966a.701.701 0 0 1-.994 0L3.019 14.56a.703.703 0 1 1 .994-.995l.909.91 2.315-2.316a.703.703 0 1 1 .994.994zm0 4.922L5.42 20.888a.7.7 0 0 1-.994 0L3.019 19.48a.703.703 0 1 1 .994-.994l.909.91 2.315-2.316a.703.703 0 1 1 .994.994zm7.94-15.262h-1.405v.703c0 1.163-.947 2.109-2.11 2.109H5.625a2.112 2.112 0 0 1-2.11-2.11v-.703H2.11C.946 2.813 0 3.76 0 4.922v16.875C0 22.96.946 24 2.11 24h14.062c1.163 0 2.11-1.04 2.11-2.203V4.922c0-1.163-.947-2.11-2.11-2.11z" fill="#8E8E93"/></svg>