<svg width="24" height="24" fill="none" xmlns="http://www.w3.org/2000/svg"><mask id="a" style="mask-type:alpha" maskUnits="userSpaceOnUse" x="0" y="0" width="24" height="24"><path fill-rule="evenodd" clip-rule="evenodd" d="M0 0h24v24H0V0z" fill="#fff"/></mask><g mask="url(#a)"><path fill-rule="evenodd" clip-rule="evenodd" d="m17.733 9.144-6.706 6.706a.7.7 0 0 1-.994 0l-3.766-3.765a.703.703 0 1 1 .994-.995l3.269 3.269 6.209-6.21a.703.703 0 0 1 .994.995zm2.752-5.63A11.922 11.922 0 0 0 12 0a11.922 11.922 0 0 0-8.485 3.515A11.922 11.922 0 0 0 0 12c0 3.205 1.248 6.219 3.515 8.485A11.921 11.921 0 0 0 12 24c3.205 0 6.219-1.248 8.485-3.515A11.921 11.921 0 0 0 24 12c0-3.205-1.248-6.219-3.515-8.485z" fill="#fff"/></g></svg>