<svg width="20" height="20" viewBox="0 0 20 20" fill="none" xmlns="http://www.w3.org/2000/svg">
<path fill-rule="evenodd" clip-rule="evenodd" d="M17.4443 18.822H2.55566C1.79602 18.822 1.17805 18.204 1.17805 17.4443V15.2957L5.0552 11.9968C5.19664 11.8764 5.40305 11.8752 5.54586 11.9938L7.97457 14.0105C8.20875 14.205 8.5525 14.189 8.7677 13.9736L14.5383 8.1941C14.6426 8.08961 14.7642 8.07945 14.8277 8.0827C14.891 8.08598 15.0111 8.10856 15.1041 8.22316L18.822 12.8009V17.4443C18.822 18.204 18.2039 18.822 17.4443 18.822M2.55566 1.17805H17.4443C18.2039 1.17805 18.822 1.79605 18.822 2.55566V10.9322L16.0186 7.48043C15.7406 7.13809 15.3285 6.92879 14.888 6.90617C14.4479 6.88391 14.0163 7.04961 13.7046 7.36172L8.31375 12.761L6.29852 11.0876C5.71418 10.6023 4.87027 10.6073 4.29176 11.0996L1.17805 13.7489V2.55566C1.17805 1.79605 1.79602 1.17805 2.55566 1.17805M17.4443 0H2.55566C1.14645 0 0 1.14648 0 2.55566V17.4443C0 18.8535 1.14645 20 2.55566 20H17.4443C18.8535 20 20 18.8535 20 17.4443V2.55566C20 1.14648 18.8535 0 17.4443 0" fill="#9E9E9E"/>
<path fill-rule="evenodd" clip-rule="evenodd" d="M5.84035 4.17805C6.75699 4.17805 7.5027 4.92379 7.5027 5.84039C7.5027 6.75695 6.75699 7.5027 5.84035 7.5027C4.92375 7.5027 4.17805 6.75695 4.17805 5.84039C4.17805 4.92375 4.92375 4.17805 5.84035 4.17805M5.84035 8.68074C7.40656 8.68074 8.6807 7.40656 8.6807 5.84039C8.6807 4.27418 7.40656 3 5.84035 3C4.27414 3 3 4.27422 3 5.84039C3 7.40652 4.27414 8.68074 5.84035 8.68074" fill="#9E9E9E"/>
</svg>
