<svg width="314" height="229" fill="none" xmlns="http://www.w3.org/2000/svg"><defs><linearGradient id="a" x1="273" y1="228.985" x2="273" y2="6.004" gradientUnits="userSpaceOnUse"><stop stop-color="gray" stop-opacity=".25"/><stop offset=".54" stop-color="gray" stop-opacity=".12"/><stop offset="1" stop-color="gray" stop-opacity=".1"/></linearGradient></defs><path fill-rule="evenodd" clip-rule="evenodd" d="M263.41 67.116a19.622 19.622 0 0 0 2.237 2.15c5.326 4.392 7.493 9.387 7.346 14.418a21.24 21.24 0 0 0-.601-.702c.096 11.373-11.831 23.07-26.055 28.579-6.857 2.658-11.573 6.212-14.75 10.332l-5.453 28.928-11.596-1.263c-12.577-.753-32.942-.205-48.196 8.934l-13.124 12.347a39.268 39.268 0 0 0-3.526 6.66l-18.137-28.8-22.923-32.373c11.158 31.343 11.371 56.418 11.371 56.418l-11.492 43.397-1.611-.269-.147.445-.827 4.165h1.149l1.436 4.341s7.341-.16 7.182 1.447c-.16 1.608-4.146 4.341-14.366 1.447l-2.873-2.894s-1.437-1.447 1.437-4.341h.204l.785-5.618-1.001-.17 8.617-43.394c-7.184-5.946-20.109-28.931-20.109-28.931S75.46 165.351 68.277 171.3l8.625 43.406-1.001.17.796 5.618h.205c2.873 2.894 1.436 4.341 1.436 4.341l-2.873 2.894c-10.214 2.894-14.206.161-14.365-1.447-.16-1.607 7.18-1.447 7.18-1.447l1.438-4.341h1.148l-.637-3.203-.13.046-.354-1.429-1.467.245-11.492-43.397s-1.596-15.911 11.492-50.63l-.319-46.76-7.154 1.05-5.323 5.325 4.208 22.582 1.145 1.484h.054s4.428 5.727 3.006 12.036c-1.163 5.206-7.217-5.237-9.279-9.021l-.556.417-10.055-30.377s-3.033-5.625 1.437-8.68l17.236-17.357s4.488-3.027 8.873-3.158c.292-.938.812-1.898 1.744-2.336l1.049-6.394a13.126 13.126 0 0 1 1.881-9.826 3.746 3.746 0 0 1-.6-.133 5.303 5.303 0 0 1-2.036-1.338c-1.686-1.623-2.946-3.812-3.108-6.164a6.953 6.953 0 0 1 1.043-4.162 5.642 5.642 0 0 1 2.104-2.174c2.835-1.628 6.448-.341 9.183 1.454l.349.23c2.279 1.501 4.933 3.251 7.337 2.08.523-.256.97-.632 1.418-1.008.264-.22.527-.442.807-.64 2.918-2.064 7.265-1.047 9.648 1.626 2.384 2.673 3.045 6.542 2.643 10.108-.364 3.219-1.506 6.282-2.64 9.323l-.366.984a6.674 6.674 0 0 1-.662 1.432c-.132.255-.299.49-.496.7a2.479 2.479 0 0 1-2.257.675c-.7 1.414-1.65 2.69-2.801 3.762a78.278 78.278 0 0 0 18.432-3.2l1.034-.871-2.122-23.08-.415.197s-3.773-18.33 1.292-14.345c3.794 3 4.831 7.837 5.11 10.059l.114-.07 5.994 25.916c5.339-.34 11.281.1 17.266.975 19.024 2.688 38.689 9.899 41.075 10.807 3.872-.073 38.59-1.323 88.487-22.759 0 0-.213.218-.586.606l1.202-.509s-8.046 7.84-11.557 17.189l-.74.275c-2.236 6.203-2.428 13.002 3.033 18.614v-.554Zm-155.214 44.527.015.533.646.514-.661-1.047Z" fill="url(#a)"/><path d="M63.8 105.43h-.054L61.193 102l-4.13 4.304.457.714-.52.131s8.336 16.776 9.725 10.408c1.388-6.367-2.925-12.127-2.925-12.127Z" fill="#FDB797"/><path d="M80.092 48.608s15.287 4.612 36.693-2.307c21.405-6.92 65.74 9.992 65.74 9.992s35.163 0 87.145-22.293c0 0-23.697 23.063-6.88 36.901 16.817 13.84 1.53 33.825-18.346 41.514-19.876 7.688-21.403 23.062-19.876 37.67 1.527 14.608 0 .77 0 .77S164.943 140.092 149.653 177L73.977 57.066s-4.586-9.224 6.115-8.458Z" fill="#6C63FF"/><mask id="b" style="mask-type:alpha" maskUnits="userSpaceOnUse" x="117" y="55" width="197" height="143"><path fill-rule="evenodd" clip-rule="evenodd" d="M124.119 69.764s15.279 4.606 36.674-2.304 65.708 9.98 65.708 9.98 35.146 0 87.103-22.264c0 0-23.685 23.032-6.877 36.852 16.809 13.82 1.529 33.78-18.337 41.458-19.866 7.678-21.392 23.032-19.866 37.62 1.526 14.589 0 .768 0 .768s-59.596-10.747-74.878 26.111l-75.64-119.774s-4.583-9.212 6.113-8.447Z" fill="#fff"/></mask><g mask="url(#b)" fill="#000"><path opacity=".1" d="m41.904 25.3 190.247 137.427 11.461-33.78L41.904 25.301ZM53.365 68.295l105.437 107.484 15.283-11.516-120.72-95.968Z"/></g><g opacity=".1" fill="#000"><path d="M84.992 59.446s15.28 4.578 36.675-2.29c21.395-6.87 65.702 9.922 65.702 9.922s28.432 0 71.953-16.103c3.441-9.09 11.328-16.712 11.328-16.712-51.97 22.129-87.103 22.129-87.103 22.129s-44.316-16.788-65.708-9.92c-21.392 6.869-36.675 2.29-36.675 2.29-10.696-.763-6.112 8.396-6.112 8.396l3.145 4.952c.656-1.669 2.483-2.972 6.795-2.664ZM263.782 70.892a19.156 19.156 0 0 1-2.194-2.091c-.175 4.505 1.381 8.987 6.013 12.774a23.856 23.856 0 0 1 3.378 3.337c.148-4.894-1.976-9.753-7.197-14.02Z"/></g><path d="M108 212.856 106.601 220H101l1.402-10 5.598 2.856Z" fill="#FDB797"/><path opacity=".1" d="m108 213-.399 1-5.601-1.332.399-.668 5.601 1Z" fill="#000"/><path d="M72 212.856 73.4 220H79l-1.4-10-5.6 2.856Z" fill="#FDB797"/><path opacity=".1" d="m72 213.286.399 1.714L78 212.859V212l-6 1.286Z" fill="#000"/><path d="M120 20.886s-.163-7.297-5.317-11.314S113.386 24 113.386 24L120 20.886Z" fill="#FDB797"/><path d="M78.266 218h-6.938l-1.388 4.595s-7.092-.171-6.938 1.529c.155 1.7 4.008 4.595 13.876 1.53l2.775-3.059s1.388-1.536-1.387-4.595ZM101.734 218h6.938l1.388 4.595s7.092-.171 6.938 1.529c-.155 1.7-4.008 4.595-13.876 1.53l-2.775-3.059s-1.388-1.536 1.387-4.595ZM109.687 121H70.312c-12.815 33.596-11.252 48.996-11.252 48.996l11.252 41.995 8.45-1.4-8.45-41.985c7.032-5.755 19.694-27.998 19.694-27.998s12.655 22.23 19.681 27.998l-8.451 41.994 8.451 1.4 11.252-41.995s1.572-15.409-11.252-49.005Z" fill="#333"/><path opacity=".1" d="M70 121s22.117 6.75 39 0H70Z" fill="#000"/><path d="m68.751 70.98-11.38 11.263 4.274 22.528-5.69 4.229-9.96-29.567s-3.003-5.474 1.424-8.458l17.074-16.897s7.327-4.858 12.364-2.368c5.037 2.49-8.203 19.092-8.203 19.092" fill="#F96060"/><path d="m68 71.293 1.406 50.929s22.328 8.5 39.372 0l-1.406-47.942-.359-1.585.26-.78 16.897-14.097c4.631-2.565 2.184-8.32 2.184-8.32L119.294 19l-5.996 3.697 2.112 22.93-12.032 10.042-.302-.015-30.846-1.336" fill="#F96060"/><path d="M84 52.5a5.5 5.5 0 1 1 11 0v1a5.5 5.5 0 1 1-11 0v-1Z" fill="#FDB797"/><path opacity=".1" d="M85 51.37a12.004 12.004 0 0 0 10-1.072c-.747-1.976-2.69-3.292-4.867-3.298-2.603.009-4.797 1.877-5.133 4.37Z" fill="#000"/><circle cx="88.5" cy="39.5" r="12.5" fill="#FDB797"/><path opacity=".1" d="M79.462 32.648a6.784 6.784 0 0 1-2.371-.13 5.254 5.254 0 0 1-2.007-1.27c-1.666-1.548-2.907-3.613-3.068-5.843-.161-2.23.912-4.592 2.91-5.698 2.797-1.542 6.364-.324 9.06 1.377 2.32 1.47 5.091 3.356 7.584 2.188.818-.382 1.45-1.056 2.196-1.559 2.88-1.956 7.166-.991 9.517 1.542 2.35 2.532 3.01 6.198 2.606 9.58-.405 3.384-1.743 6.582-2.971 9.77a4.683 4.683 0 0 1-.952 1.716c-1.496 1.485-4.296.332-5.281-1.51-1.712-3.203 0-8.757-4.044-10.625-3.22-1.483-9.721.244-13.179.462Z" fill="#000"/><path d="M80.462 31.648a6.784 6.784 0 0 1-2.371-.13 5.254 5.254 0 0 1-2.007-1.27c-1.666-1.548-2.907-3.613-3.068-5.843-.161-2.23.912-4.592 2.91-5.698 2.797-1.542 6.364-.324 9.06 1.377 2.32 1.47 5.091 3.356 7.584 2.188.818-.382 1.45-1.056 2.196-1.559 2.88-1.956 7.166-.991 9.517 1.542 2.35 2.532 3.01 6.198 2.606 9.58-.405 3.384-1.761 6.582-2.977 9.77a4.683 4.683 0 0 1-.952 1.716c-1.496 1.485-4.296.332-5.281-1.51-1.712-3.203 0-8.757-4.044-10.625-3.205-1.483-9.718.247-13.173.462Z" fill="#333"/><ellipse cx="95.5" cy="39.5" rx="1.5" ry="2.5" fill="#FDB797"/><path opacity=".1" d="m68 71 3 1.662L68 77v-6ZM107.841 72 105 74.632 106.893 77 108 74.368 107.841 72Z" fill="#000"/><path d="M90 58.6V61s-16.578-3.198-17-8l10.941.8L90 58.6ZM90 58.6V61s16.578-3.198 17-8l-10.941.8L90 58.6Z" fill="#6C63FF"/><path opacity=".1" d="m192 84 55 12.75-19.862 8.25L192 84Z" fill="#000"/><path d="M73 52.998S73 48 76.334 48C79.67 48 83 58 83 58l-10-5.002Z" fill="#6C63FF"/><circle opacity=".5" cx="3.5" cy="87.5" r="1.5" fill="#F55F44"/><circle opacity=".5" cx="28.5" cy="137.5" r="1.5" fill="#F55F44"/><circle opacity=".5" cx="251.5" cy="4.5" r="1.5" fill="#F55F44"/><path opacity=".5" d="M152.596 7.542a1.373 1.373 0 0 1-.767-1.659.688.688 0 0 0-1.288-.472c-.28.637-.991.964-1.657.763a.69.69 0 0 0-.842.42.688.688 0 0 0 .37.867c.634.282.959.992.757 1.656a.688.688 0 0 0 1.288.472c.279-.64.992-.969 1.66-.767.049.016.1.026.152.03a.69.69 0 0 0 .46-1.236.673.673 0 0 0-.133-.074ZM254.589 134.539a1.373 1.373 0 0 1-.765-1.657.688.688 0 0 0-1.208-.607.652.652 0 0 0-.077.136c-.278.638-.99.967-1.657.765a.688.688 0 0 0-.607 1.208.652.652 0 0 0 .136.077c.638.278.967.99.765 1.657a.688.688 0 0 0 1.208.607.652.652 0 0 0 .077-.136c.278-.638.99-.967 1.657-.765a.688.688 0 0 0 .607-1.208.652.652 0 0 0-.136-.077Z" fill="#4D8AF0"/><circle opacity=".5" cx="176.5" cy="193.5" r="1.5" fill="#47E6B1"/><circle opacity=".5" cx="3.5" cy="179.5" r="1.5" fill="#47E6B1"/><circle opacity=".5" cx="170.5" cy="27.5" r="1.5" fill="#47E6B1"/><g opacity=".5" fill="#47E6B1"><path d="M2.427 0h1.041v5.895H2.427V0Z"/><path d="M5.895 2.427v1.041H0V2.427h5.895Z"/></g><g opacity=".5" fill="#47E6B1"><path d="M21.48 57.129h.991v5.614h-.991v-5.614Z"/><path d="M24.783 59.44v.991h-5.614v-.991h5.614Z"/></g><g opacity=".5" fill="#47E6B1"><path d="M213.268 31.015h1.041v5.895h-1.041v-5.895Z"/><path d="M216.739 33.442v1.041h-5.895v-1.041h5.895Z"/></g></svg>