<svg width="282" height="231" fill="none" xmlns="http://www.w3.org/2000/svg"><defs><linearGradient id="a" x1="140.999" y1="87" x2="140.999" y2="37" gradientUnits="userSpaceOnUse"><stop stop-color="gray" stop-opacity=".25"/><stop offset=".54" stop-color="gray" stop-opacity=".12"/><stop offset="1" stop-color="gray" stop-opacity=".1"/></linearGradient><linearGradient id="b" x1="55148.9" y1="26025" x2="55148.9" y2="18003.5" gradientUnits="userSpaceOnUse"><stop stop-color="gray" stop-opacity=".25"/><stop offset=".54" stop-color="gray" stop-opacity=".12"/><stop offset="1" stop-color="gray" stop-opacity=".1"/></linearGradient><linearGradient id="c" x1="193.805" y1="398.426" x2="193.805" y2="398.246" gradientUnits="userSpaceOnUse"><stop stop-color="gray" stop-opacity=".25"/><stop offset=".54" stop-color="gray" stop-opacity=".12"/><stop offset="1" stop-color="gray" stop-opacity=".1"/></linearGradient><linearGradient id="d" x1="30206" y1="141782" x2="30206" y2="41603.2" gradientUnits="userSpaceOnUse"><stop stop-color="gray" stop-opacity=".25"/><stop offset=".54" stop-color="gray" stop-opacity=".12"/><stop offset="1" stop-color="gray" stop-opacity=".1"/></linearGradient><linearGradient id="e" x1="63185.3" y1="136055" x2="63185.3" y2="43012.2" gradientUnits="userSpaceOnUse"><stop stop-color="gray" stop-opacity=".25"/><stop offset=".54" stop-color="gray" stop-opacity=".12"/><stop offset="1" stop-color="gray" stop-opacity=".1"/></linearGradient></defs><ellipse opacity=".1" cx="48.5" cy="223" rx="48.5" ry="8" fill="#6C63FF"/><ellipse opacity=".1" cx="233.5" cy="220" rx="48.5" ry="8" fill="#6C63FF"/><path opacity=".1" d="M75.176.122C62.5.802 49.694 4.515 39.805 12.495c-8.677 7.006-14.935 18.02-13.408 29.087 1.802 13.063 13.427 22.566 17.74 35.028 2.774 8.01 2.341 16.85.525 25.138-1.168 5.34-2.964 10.685-6.417 14.917-6.219 7.614-17.442 11.288-20.497 20.639-3.323 10.168 5.05 20.141 12.917 27.373 6.28 5.771 12.857 11.514 20.77 14.677 5.786 2.315 12.066 3.147 18.29 3.478a121.715 121.715 0 0 0 50.424-8.077c7.691-2.992 15.13-6.785 23.179-8.589 17.152-3.845 34.801 1.699 52.184 4.296a155.678 155.678 0 0 0 44.96.132c9.385-1.342 19.081-3.765 26.149-10.097 7.164-6.428 10.746-16.378 10.349-26.019-.397-9.641-4.452-18.923-10.426-26.492-7.715-9.777-18.357-16.733-27.615-25.064a119.661 119.661 0 0 1-23.757-29.442c-3.637-6.354-6.731-13.097-11.443-18.691-7.349-8.719-18.007-13.904-28.656-17.91-24.567-9.226-50.049-11.105-75.664-15.182-8.004-1.279-16.124-2-24.233-1.575Z" fill="#6C63FF"/><g opacity=".7"><path d="M71.148 101.486h52.33v29.464h-52.33v-29.464Z" fill="#F6F7F9"/><ellipse cx="81" cy="114.565" rx="5.448" ry="5.489" fill="#6C63FF" opacity=".2"/><path d="M93.09 108.06h23.737v1.505H93.09v-1.505ZM93.09 111.895h12.094v1.505H93.09v-1.505ZM93.09 115.731h19.558v1.504H93.09v-1.504ZM93.09 119.566h23.737v1.505H93.09v-1.505ZM110.261 125.102h6.569v2.908h-6.569v-2.908Z" fill="#6C63FF" opacity=".2"/><path d="M115.205 20.055h52.331V49.52h-52.331V20.055Z" fill="#F6F7F9"/><ellipse cx="125.06" cy="33.135" rx="5.448" ry="5.489" fill="#6C63FF" opacity=".2"/><path fill="#6C63FF" d="M137.15 26.63h23.737v1.505H137.15zM137.15 30.465h12.093v1.505H137.15v-1.505ZM137.15 34.3h19.558v1.505H137.15V34.3ZM137.15 38.138h23.737v1.505H137.15v-1.505ZM154.319 43.672h6.568v2.907h-6.568v-2.907Z" opacity=".2"/><path d="M132.623 69.525h52.33V98.99h-52.33V69.525Z" fill="#F6F7F9"/><ellipse cx="142.475" cy="82.607" rx="5.448" ry="5.489" fill="#6C63FF" opacity=".2"/><path d="M154.568 76.102h23.737v1.505h-23.737v-1.505ZM154.568 79.937h12.093v1.505h-12.093v-1.505ZM154.568 83.772h19.558v1.505h-19.558v-1.505ZM154.568 87.608h23.737v1.505h-23.737v-1.505ZM171.737 93.144h6.568v2.907h-6.568v-2.907Z" fill="#6C63FF" opacity=".2"/></g><path d="M53 37h88v50H53V37Z" fill="url(#a)"/><path d="M53 38h87v49H53V38Z" fill="#F6F7F9"/><circle cx="70.571" cy="60.503" r="9.347" fill="#6C63FF" opacity=".2"/><path d="M90.254 49.132h39.619v2.709h-39.62v-2.709ZM90.258 55.144h20.484v2.709H90.258v-2.709ZM90.253 62.153h32.541v2.709h-32.54v-2.709ZM90.254 68.162h39.619v2.709h-39.62v-2.709Z" fill="#6C63FF" opacity=".2"/><path d="M119 77h11v4h-11v-4Z" fill="#6C63FF"/><path d="M115 105h84v47h-84v-47Z" fill="url(#b)"/><path d="M116 105h83v46h-83v-46Z" fill="#F6F7F9"/><circle cx="130.983" cy="125.921" r="8.82" fill="#6C63FF" opacity=".2"/><path d="M150.149 116.165h37.622v2.577h-37.622v-2.577ZM150.145 122.141h18.625v2.577h-18.625v-2.577ZM150.147 128.084h30.611v1.909h-30.611v-1.909ZM150.149 134.064h37.622v1.909h-37.622v-1.909Z" fill="#6C63FF" opacity=".2"/><path d="M177.092 142.253h9.695v4.614h-9.695v-4.614Z" fill="#6C63FF" opacity=".5"/><path d="m22.215 79.23.185.04a.25.25 0 0 0-.185-.04Z" fill="url(#c)" opacity=".1"/><path fill-rule="evenodd" clip-rule="evenodd" d="M65.47 110.868c-.61-4.081-4.326-13.604-4.326-13.604a17.52 17.52 0 0 0-.22-.847c-2.639-9.046-6.288-9.847-6.288-9.847L41.56 83.79a.977.977 0 0 1 .276.258l-.207.033a5.103 5.103 0 0 1-1.147-2.475 6.308 6.308 0 0 1-.063-.418A9.162 9.162 0 0 0 39.25 67.08c.618-.652.637-1.562.177-2.475-1.031-2.138-3.27-3.488-5.574-4.145-1.76-.504-3.667-.666-5.409-.116-.763.24-1.473.609-2.183.977-.215.112-.43.224-.648.332-.358.179-.723.35-1.088.52-1.411.66-2.832 1.324-3.874 2.454-.306.332-.584.756-.496 1.193.046.22.178.406.31.593.064.09.128.181.183.276.373.65.276 1.467.025 2.173-.1.282-.22.557-.34.831-.181.415-.362.83-.47 1.26-.18.715-.108 1.579.438 2.096.265.207.541.4.827.577.3.253.562.547.78.872l1.55 2.088a21.33 21.33 0 0 1 1.93 2.94c.107.212.207.429.309.646.259.555.518 1.112.89 1.599.15.2.324.385.515.55a2.255 2.255 0 0 0-.056-.02c-.032-.012-.064-.024-.096-.038a2.349 2.349 0 0 0 1.731.663h.077a.472.472 0 0 0 .317-.13v.276a31.735 31.735 0 0 1-.046 3.072l-.122-.06a1.052 1.052 0 0 0-1.127.118l-12.044 9.627s-2.616 3.575-2.252 9.736l-2.109 9.248s-2.638 7.847-.609 13.45c2.029 5.603 3.206 8.801 3.206 8.801s.81 6.365 2.029 6.877c1.218.511 1.745.803 1.745.803l.242 1.521s.08.146.224.399c.887 1.537 4.17 6.967 6.08 6.389.24 1.474.344 2.966.312 4.459l1.886 12.652s1.317 3.441 1.237 5.243c-.08 1.801 1.541 4.365 1.541 4.365a8.328 8.328 0 0 0-.81 5.883c.772 3.364 1.745 18.894 1.745 18.894l1.42 3.762-.042 4.401a4.213 4.213 0 0 1-.87 1.953c-.306.331-.503.678-.71 1.045-.415.732-.872 1.54-2.323 2.44-.333.206-.648.393-.942.568-1.633.968-2.642 1.567-2.642 3.093a4.75 4.75 0 0 1-.066.743l-.04.24c-.196 1.165-.305 1.811 3.486 2.172 4.747.448 7.911-2.643 7.911-2.643s.698-1.263 3.986-1.772c0 0 1.122-.06 1.186-1.053.022-.341.016-.996-.014-1.717-.052-1.375-.185-2.976-.358-3.055-.218-.097-.604-1.48-.736-1.981h.915s.852-6.365 0-10.49c-.852-4.126-.08-7.044-.08-7.044l-.163-10.887s-1.15-1.163-.248-3.281c.901-2.118 0-12.609 0-12.609s.328-3.762 1.26-4.643c.932-.88.047-5.514 0-5.757l1.654 5.557s.73 11.048 2.274 13.051l.447 5s3.164 4.605 2.555 7.088c-.61 2.484.65 11.448.65 11.448v9.168s-1.422 3.683.568 5.003l.858-.033a3.847 3.847 0 0 0-.42.498 5.17 5.17 0 0 1-.407.497c-.38.391-.596 1.876-.717 3.153-.102 1.081-.135 2.01-.135 2.01s.852 1.351 2.434 1.441c1.582.091 6.817 4.085 6.817 4.085s5.177 0 6.514-.275l.08-.019a1.77 1.77 0 0 0 1.009-.825c.27-.456.357-.996.245-1.513-.168-.79-.794-1.651-2.186-2.39-3.47-1.83-3.986-3.54-3.986-3.54l-2.274-3.4h.325s-.201-3.603 2.272-7.647l-.16-17.812s1.011-6.125-.73-9.448c0 0-.144-3.523 1.022-4.604s-1.552-12.009-1.552-12.009-.551-5.864-1.224-11.217c2.737 2.591 5.58-6.741 6.065-8.4h.071s-.014-.044-.033-.121c-.02-.077.033-.118.033-.118l-.015-.059c-.091-.342-.549-2.058-.147-1.663.444.437 1.543-1.199 1.543-1.199s-.162-8.928 1.745-13.428c1.908-4.5-.86-15.445-.86-15.445Zm-8.158 5.68.014-.024c.276 5.451-.055 17.083-.055 17.083s-.375 1.491-.777 3.246l-.29-11.052-.275-10.408 1.383 1.155Zm-34.934 15.937c1.378-2.481 0-19.694 0-19.694-.973-.641-1.786 2.72-1.786 2.72s.647.881-.326 2.943c-.923 1.959-.861 4.477-.852 4.829v.037c0 .018.03.145.08.356.281 1.2 1.194 5.092.814 6.729-.345 1.486.62 4.289 1.075 5.482.273-1.438.6-2.695.995-3.402Z" fill="url(#d)"/><path d="M25.796 151.282c-1.118 5.107-5.575-2.618-6.59-4.47l-.206-.384.483-2.348 2.555-1.08c.404.219.786.478 1.142.773 1.406 1.13 3.48 3.553 2.616 7.509ZM63 143.301l-.03.114c0 .034-.026.074-.04.124-.476 1.589-3.307 10.506-6.04 8.029-2.99-2.718-1.537-8.959-1.537-8.959h.028l6.292-.609 1.246 1.213.081.088Z" fill="#EFB7B9"/><path d="m60.416 189.334.16 17.734c-2.461 4.028-2.263 7.615-2.263 7.615l-8.11.317c-1.979-1.313-.559-4.98-.559-4.98v-9.129s-1.266-8.923-.662-11.406c.604-2.483-2.545-7.054-2.545-7.054l-.442-4.98c-1.538-1.992-2.265-12.995-2.265-12.995l-1.652-5.518c.042.24.9 4.878 0 5.731-.9.852-1.253 4.624-1.253 4.624s.89 10.442 0 12.553c-.89 2.11.24 3.311.24 3.311l.165 10.839s-.769 2.911.079 7.016c.847 4.106 0 10.443 0 10.443h-8.725l.04-4.414-1.413-3.747s-.97-15.464-1.736-18.81a8.3 8.3 0 0 1 .805-5.86s-1.614-2.552-1.533-4.346c.082-1.793-1.233-5.22-1.233-5.22l-1.879-12.594a24.119 24.119 0 0 0-.928-7.173C23.613 147.704 22 143 22 143l1.823.16 9.206.808s22.37-1.484 23.38-.251c.212.403.356.837.425 1.286 1.004 4.456 2.332 18.405 2.332 18.405s2.707 10.881 1.544 11.957c-1.164 1.076-1.018 4.583-1.018 4.583 1.733 3.288.724 9.386.724 9.386Z" fill="#444053"/><path d="M39.988 220.467c-.063.993-1.142 1.055-1.142 1.055-3.157.51-3.827 1.776-3.827 1.776s-3.041 3.096-7.597 2.66c-3.883-.383-3.508-1.111-3.309-2.415.04-.246.061-.495.063-.744 0-1.805 1.349-2.319 3.451-3.671 2.103-1.352 2.046-2.498 2.923-3.489.877-.991.966-2.915.966-2.915.993-1.777 3.509.277 3.509.277.116.63 3.859.555 3.859.555s.496 2.047.75 2.166c.167.08.294 1.685.346 3.054.024.694.027 1.352.008 1.691Z" fill="#B07473"/><path opacity=".1" d="M39.988 219.665c-.062.958-1.142 1.017-1.142 1.017-3.157.493-3.826 1.713-3.826 1.713s-3.042 2.985-7.598 2.564c-3.883-.369-3.508-1.07-3.309-2.328 1.736.428 5.055 1.022 6.993-.022 2.699-1.45 4.623-2.465 4.623-2.465L39.974 218c.03.704.033 1.338.014 1.665Z" fill="#000"/><path d="M64.712 224.857a1.753 1.753 0 0 1-1.003.843.417.417 0 0 1-.078.019c-1.328.281-6.458.281-6.458.281s-5.199-4.059-6.759-4.152c-1.56-.092-2.414-1.46-2.414-1.46s.03-.943.13-2.038c.123-1.294.338-2.807.714-3.194.696-.73.835-1.732 2.414-1.095 0 0 2.228-3.961 4.857-.901l2.718 4.157s.513 1.732 3.955 3.588c1.378.744 1.999 1.62 2.163 2.42.113.523.028 1.07-.24 1.532Z" fill="#B07473"/><path opacity=".1" d="M64.711 224.954c-.306.239-.649.496-1.002.771a.35.35 0 0 1-.079.018c-1.328.257-6.457.257-6.457.257s-5.2-3.714-6.759-3.799c-1.56-.085-2.414-1.336-2.414-1.336s.03-.863.13-1.865c1.596.442 4.02 1.22 4.668 2.055.994 1.284 4.016 3.059 4.016 3.059s5.633-.498 8.137-.567c.114.48.028.983-.24 1.407Z" fill="#000"/><path d="M43 86.283 35.59 94s-8.974-.652-7.406-3.266c.797-1.328.922-4.109.853-6.536-.067-2.337-.311-4.326-.311-4.326s12.587-6.175 11.623-.416a9.418 9.418 0 0 0-.036 3.287c.547 2.91 2.687 3.54 2.687 3.54Z" fill="#EFB7B9"/><path opacity=".1" d="M40.946 79.324a8.22 8.22 0 0 0-.037 3.112c-1.787 1.643-4.226 2.567-6.77 2.564-1.76 0-3.642-1.296-5.056-2.061-.069-2.212-.083-3.22-.083-3.22s12.937-5.845 11.946-.395Z" fill="#000"/><path d="M43 76.496a9.5 9.5 0 1 1-19 .007 9.5 9.5 0 0 1 19-.007Z" fill="#EFB7B9"/><path opacity=".1" d="M56 144.713c-2.294 5.074-17.05 5.179-17.05 5.179v-5.53l-.895-.054c.386 1.583-.552 5.446-.552 5.446C25.84 151.293 23 145.114 23 145.114l.403-2.114 9.087.752s22.083-1.38 23.08-.234c.213.374.358.778.43 1.195Z" fill="#000"/><path d="M38.803 149.887v-5.984l-.886-.056c.383 1.712-.547 5.89-.547 5.89-8.695 1.243-12.444-2.22-13.766-4.023a5.465 5.465 0 0 1-.604-.998l3.526-20.138.82-29.636 1.272-5.198.295-2.497v-.028l.03.014.897.391 5.383 2.358 6.145-4.68.09-.069.304-.233.506.413 1.256 1.021 4.031 26.393s6.99 20.323 8.287 28.526c.052.328.096.633.129.919.85 7.476-17.168 7.615-17.168 7.615Z" fill="#E1E7EF"/><circle cx="35.5" cy="91.5" r=".5" fill="#67647E"/><circle cx="36.5" cy="95.5" r=".5" fill="#67647E"/><circle cx="36.5" cy="103.5" r=".5" fill="#67647E"/><circle cx="37.5" cy="111.5" r=".5" fill="#67647E"/><circle cx="37.5" cy="119.5" r=".5" fill="#67647E"/><circle cx="38.5" cy="127.5" r=".5" fill="#67647E"/><circle cx="38.5" cy="135.5" r=".5" fill="#67647E"/><path opacity=".1" d="M29.182 128.465s-.573 7.731-1.623 9.978S26.033 147 26.033 147l-2.435-.278a5.498 5.498 0 0 1-.598-1.001l3.488-20.187.811-29.709 1.258-5.211.293-2.503a.069.069 0 0 1 .032-.014.964.964 0 0 1 .871.014l.12.061c-.036.103-.071.209-.104.317-.952 3.073-1.31 8.74-1.31 8.74s1.37 10.365 1.524 15.187c.154 4.823-.8 16.049-.8 16.049ZM23 143.811a1.78 1.78 0 0 1-.084.188c-.863 1.658-3.053 2.713-3.72 3.001l-.196-.403.462-2.464L21.909 143c.386.23.752.501 1.092.811Z" fill="#000"/><path d="m15.874 105-2.341 1.367-2.14 9.231s-2.672 7.834-.615 13.427c2.058 5.593 3.255 8.783 3.255 8.783s.823 6.362 2.055 6.874c1.232.512 1.77.799 1.77.799l.244 1.519s3.347-1.107 4.53-3.043c1.184-1.936-.87-6.78-.87-6.78s-1.767-4.116-1.315-6.033c.453-1.917-.905-6.955-.905-7.073 0-.119-.122-2.8.854-4.858s.33-2.935.33-2.935l-.617-5.876L15.874 105Z" fill="#F96060"/><path opacity=".1" d="M56 142.9s-6.105 2.279-8.047.277c-1.943-2.002-1.738-11.337-1.738-11.337s-1.859-17.257-3.035-20.091c-1.175-2.834-.56-23.29-.56-23.29s-.794-2.64-1.474-3.34A.689.689 0 0 0 41 85l.238.05.84.18 1.284 1.017 4.126 26.307s7.154 20.257 8.481 28.433L56 142.9Z" fill="#000"/><path opacity=".1" d="M62 143.666h-.064c-.702.101-6.913.941-6.936-.504 0-.168.009-.336.026-.502l5.753-.66 1.14 1.314c.02.086.038.16.053.217l.028.135Z" fill="#000"/><path d="m56.111 96 4.291 2.302s3.559 9.516 4.143 13.599c0 0 2.641 10.932.807 15.427-1.835 4.495-1.67 13.422-1.67 13.422s-1.05 1.639-1.478 1.199c-.427-.44.156 1.72.156 1.72s-7.325 1.003-7.36-.482c-.034-1.485 1.682-8.564 1.682-8.564s.465-16.845-.197-19.485C55.824 112.499 56.112 96 56.112 96Z" fill="#F96060"/><path opacity=".1" d="M42.721 114s-2.58 5.735-3.396 6.114c-.818.378.166 1.886.166 1.886s4.68-5.962 3.23-8ZM42 93.004c.028-.132-3.06 3.318-3.885 3.832-.823.514 3.004-.028 3.885-3.832ZM34 114s-4.542 2.757-3.946 3.844C30.65 118.93 34 114 34 114ZM42 156s3.907 2.396 10 3l-10-3ZM33 162s3.276 3.893 4.77 3.998C39.264 166.103 33 162 33 162ZM37 180c-.148.076-1.879 3.882-3.646 3.998C31.588 184.114 37 180 37 180ZM54 189.125s3.273-.849 4 1.875c0 0-.219-.852-4-1.875ZM52 203.284s4.05-.804 4.912.294c.862 1.098-4.912-.294-4.912-.294ZM40.328 205c0 .022-4.501.491-4.323.802.179.312 4.799.267 4.963-.223.064-.123.031-.256-.09-.365-.121-.11-.32-.187-.55-.214ZM50 209.177s7.447-.614 6.979.445c-.468 1.059-6.979-.445-6.979-.445ZM13 120c.039.104 4.408.666 5 2 0 0-4.295-1.896-4.961-1.896M20 133s-4.287 1.325-3.985 3.333c.303 2.009-.433-.937 3.985-3.333ZM17 141s1.4-1.192 2.732-.973C21.064 140.246 17 141 17 141ZM38.989 68.97a2.28 2.28 0 0 1-.46.333c-1.136.64-1.44 1.613-1.985 2.76-.498 1.04-1.048 2.15-2.057 2.731-1.3.761-3.015.481-4.367 1.148-1.226.624-1.941 1.908-1.81 3.247.089.505.218 1.002.388 1.486.305 1.049.444 2.136.412 3.226a.403.403 0 0 1 0 .099c-3.16-1.533-5.145-4.684-5.11-8.117.035-3.433 2.083-6.545 5.275-8.017 3.191-1.472 6.967-1.044 9.725 1.101l-.011.003Z" fill="#000"/><path d="M38.685 66.63c-.98-2.143-3.11-3.497-5.3-4.17-1.672-.503-3.486-.667-5.145-.114-.946.314-1.809.834-2.693 1.312-1.653.87-3.473 1.557-4.715 2.987-.288.33-.556.759-.47 1.198.064.328.31.578.467.87.356.65.268 1.471.024 2.18-.243.71-.598 1.371-.769 2.1-.17.728-.104 1.582.414 2.102.25.206.51.399.78.578.283.256.532.55.74.876l1.472 2.093c.693.93 1.309 1.917 1.843 2.953.37.76.652 1.571 1.141 2.25.489.678 1.256 1.223 2.068 1.148a.387.387 0 0 0 .326-.161.44.44 0 0 0 .043-.214 11.367 11.367 0 0 0-.399-3.337 10.223 10.223 0 0 1-.374-1.538c-.127-1.384.564-2.712 1.747-3.358 1.31-.687 2.966-.398 4.221-1.185.975-.614 1.507-1.752 1.988-2.828.534-1.176.82-2.193 1.918-2.855 1.098-.662 1.215-1.76.673-2.886Z" fill="#585268"/><path opacity=".1" d="M36 216s1.272 1.805.947 2.827C36.62 219.849 36 216 36 216ZM54 220s.285-1.956 1.434-1.974c1.149-.018 1.204-.106 2.08.193.877.298 1.697.765 1.437.837-.26.071-1.515-1.122-2.777-.514A9.176 9.176 0 0 0 54 220ZM30.388 94 34 91.114s-5.303-3.568-5.935-3.066c-.631.503-1.065 5.005-1.065 5.005l3.388.947Z" fill="#000"/><path d="M30.373 93 34 90.078s-5.303-3.524-5.935-3.03C27.434 87.54 27 92.243 27 92.243l3.373.756Z" fill="#E1E7EF"/><path opacity=".03" d="M30.373 93 34 90.078s-5.303-3.524-5.935-3.03C27.434 87.54 27 92.243 27 92.243l3.373.756Z" fill="#000"/><path d="m29.861 87.173-.123-.06a1.08 1.08 0 0 0-1.144.116l-12.268 9.674s-2.667 3.584-2.29 9.771l7.234 9.963s.826-3.376 1.82-2.734c0 0 1.404 17.274 0 19.765-1.406 2.491-2.026 11.809-2.026 11.809l4.752.523s.495-6.306 1.61-8.556c1.116-2.249 1.717-9.98 1.717-9.98s1.004-11.231.838-16.055c-.166-4.824-1.61-15.182-1.61-15.182s.403-6.073 1.49-9.054Z" fill="#F96060"/><path opacity=".1" d="M40.887 91 36 89.185s6.226-6.829 7-3.04L40.887 91Z" fill="#000"/><path d="M40.887 91 36 89.188s6.226-6.832 7-3.044L40.887 91Z" fill="#E1E7EF"/><path opacity=".03" d="M40.887 91 36 89.188s6.226-6.832 7-3.044L40.887 91Z" fill="#000"/><path opacity=".1" d="M41 85.008a.5.5 0 0 1 .365.075L41 85.008Z" fill="#000"/><path d="m42 85.005 13.137 2.818s3.612.799 6.22 9.816c2.61 9.018-3.572 20.072-3.572 20.072l-1.365-1.152.684 26.343s-6.063 2.274-7.988.277c-1.926-1.998-1.728-11.328-1.728-11.328s-1.845-17.248-3.012-20.088-.556-23.271-.556-23.271-1.087-3.645-1.82-3.487Z" fill="#F96060"/><path opacity=".1" d="M53.182 102.12c-.196.17-.42 8.057.424 14.06A72.254 72.254 0 0 0 56 127l-1.254-24.057s-.974-1.345-1.564-.823ZM52 95c.258.196 1.382 3.467.866 4.808C52.351 101.15 52 95 52 95ZM39.664 66.11A7.445 7.445 0 0 0 36.682 63a7.06 7.06 0 0 1 2.236 2.616c.574 1.158.413 2.318-.726 2.976-1.14.657-1.495 1.715-2.058 2.936-.516 1.106-1.09 2.287-2.138 2.904-1.348.812-3.125.515-4.53 1.218a3.522 3.522 0 0 0-1.878 3.456c.09.537.224 1.066.402 1.581.319 1.115.462 2.272.425 3.43a.44.44 0 0 1-.043.22.423.423 0 0 1-.35.167 2.017 2.017 0 0 1-1.022-.19c.469.463 1.109.71 1.768.684a.422.422 0 0 0 .35-.166.468.468 0 0 0 .046-.22 11.304 11.304 0 0 0-.428-3.43 9.823 9.823 0 0 1-.402-1.581 3.52 3.52 0 0 1 1.877-3.454c1.406-.706 3.183-.408 4.532-1.217 1.047-.632 1.62-1.801 2.137-2.908.574-1.209.878-2.255 2.058-2.936 1.18-.68 1.306-1.818.726-2.976Z" fill="#000"/><ellipse opacity=".1" cx="266" cy="210.5" rx="11" ry="1.5" fill="#6C63FF"/><ellipse opacity=".1" cx="178" cy="225" rx="8" ry="1" fill="#6C63FF"/><ellipse opacity=".1" cx="106" cy="216" rx="8" ry="1" fill="#6C63FF"/><path d="M109.942 214.243a3.313 3.313 0 0 0 1.024-1.638c.133-.648-.129-1.429-.717-1.667-.657-.266-1.361.218-1.893.705-.532.486-1.144 1.044-1.839.939.729-.7 1.057-1.754.866-2.776a1.216 1.216 0 0 0-.24-.565c-.367-.414-1.03-.235-1.466.09-1.39 1.033-1.778 3.033-1.786 4.83-.139-.648-.021-1.324-.026-1.981-.006-.656-.174-1.414-.706-1.76a2.055 2.055 0 0 0-1.07-.283c-.622-.025-1.32.043-1.745.527-.535.6-.393 1.607.066 2.263.46.657 1.163 1.078 1.81 1.534.518.326.959.772 1.292 1.304.04.075.072.153.096.235h3.92a11.022 11.022 0 0 0 2.414-1.757ZM270.931 208.243a3.33 3.33 0 0 0 1.035-1.638c.133-.648-.129-1.415-.717-1.667-.657-.266-1.36.218-1.892.705-.532.486-1.144 1.044-1.842.939.731-.699 1.06-1.753.866-2.776a1.168 1.168 0 0 0-.24-.565c-.364-.414-1.027-.235-1.462.09-1.39 1.033-1.778 3.033-1.786 4.83-.142-.648-.021-1.324-.027-1.981-.005-.656-.176-1.414-.705-1.76a2.055 2.055 0 0 0-1.07-.283c-.625-.025-1.32.043-1.748.527-.534.6-.393 1.607.07 2.263.462.657 1.163 1.078 1.809 1.534.518.326.959.772 1.291 1.304.039.075.072.154.097.235h3.916c.872-.47 1.681-1.06 2.405-1.757ZM179.94 221.228a3.323 3.323 0 0 0 1.027-1.633c.131-.649-.131-1.411-.717-1.662-.657-.266-1.36.214-1.892.702-.532.488-1.144 1.039-1.842.937.73-.698 1.059-1.749.866-2.768a1.18 1.18 0 0 0-.241-.564c-.366-.412-1.026-.234-1.464.09-1.391 1.033-1.778 3.025-1.786 4.819-.139-.646-.022-1.32-.024-1.975-.003-.654-.177-1.411-.706-1.755a2.072 2.072 0 0 0-1.069-.282c-.626-.023-1.321.042-1.749.525-.534.601-.393 1.605.07 2.257.462.652 1.163 1.072 1.807 1.529.524.33.971.781 1.305 1.321.038.074.07.151.096.231h3.913a10.861 10.861 0 0 0 2.406-1.772Z" fill="#6C63FF"/><path fill-rule="evenodd" clip-rule="evenodd" d="M260.981 94.655c-3.605-.072-6.786-2.63-8.589-5.734a5.782 5.782 0 0 1-.868-2.455c.013-.199.046-.396.099-.588.116-.291.208-.591.275-.897a1.516 1.516 0 0 0 0-.369v-.016c.088-.666-.302-1.307-.791-1.767-.262-.245-.554-.455-.846-.664-.254-.183-.508-.365-.742-.571-1.55-1.362-2.02-3.547-2.05-5.627v-.11c.007-.362.023-.725.038-1.088.024-.529.047-1.058.042-1.586.012-.507-.01-1.013-.066-1.516-.149-1.26-.627-2.543-1.616-3.346-1.307-1.06-3.065-1.025-4.829-.989-1.717.036-3.44.07-4.756-.907-.203-.15-.393-.322-.583-.494-.42-.381-.837-.76-1.379-.881-.596-.143-1.214.05-1.794.242-1.967.65-4.16 1.505-4.929 3.42-.227.568-.304 1.172-.38 1.775-.072.566-.144 1.132-.34 1.667-.171.462-.425.883-.68 1.306-.154.255-.307.51-.443.774a3.263 3.263 0 0 0-.421 1.736c-.03.314.014.63.129.924.136.351.355.664.638.911a3.061 3.061 0 0 1-.385.611c-.264.324-.602.599-.939.873-.305.248-.61.495-.858.778-.967 1.122-.931 2.65-.453 3.97.28.773.69 1.506 1.099 2.238.29.519.58 1.037.824 1.57.256.55.462 1.183.195 1.739-.128.27-.355.493-.582.717a6.665 6.665 0 0 0-.286.293 3.184 3.184 0 0 0-.786 1.766c-5.887 1.346-5.89 6.08-5.89 6.08l-3.176 8.018s-.508 1.348-1.099 3.129l-3.764-.675 2.599 4.386c-.497 1.786-.846 3.442-.731 4.273 0 0-1.167 5.503.91 6.463l4.588 2.066c.198.121.411.213.634.276l.187.082a.483.483 0 0 0 .429 0H218.69a.587.587 0 0 0 .275-.038.494.494 0 0 0 .228-.251.104.104 0 0 0 0-.025l1.374-.398 1.164 1.375c.525.369 1.039.691 1.542.98l-1.792 17.939s-.291 23.843-1.167 29.272c-.327 2.011-.33 3.381-.206 4.314l-.033.061c.217 1.532.78 1.835.78 1.835v-.022l.033.022c.265-.696.58-1.372.942-2.022v.39c-.016 2.025-.079 4.857-.274 6.697-.358 3.131.909 13.504.909 13.504l.437 9.437a8.735 8.735 0 0 1-1.072 4.595c-1.035 1.885-2.384 4.535-2.472 5.709a1.554 1.554 0 0 0 0 .193l-2.297 2.677s-.879 1.357 1.099 1.904c1.063.297 2.901 0 4.374-.349a2.928 2.928 0 0 0 2.269-2.848c.379-1.3 1.017-2.51 1.874-3.558l.371 2.171 2.472.614.316-5.952c.129-.334.187-.692.171-1.051.486-4.231-1.146-3.851-1.146-3.851a.276.276 0 0 1 .08.148 2.27 2.27 0 0 1-.08-.146c-1.003-1.981-.511-5.227-.511-5.227s1.299-9.432 1.755-11.922c.322-1.758.19-7.52.083-10.747 0-.135 0-.275-.014-.388 3.827-.05 8.517-.182 11.814-.501v.391l-.61 22.286a12.267 12.267 0 0 1-.849 4.144c0 .015-.008.03-.017.045l-.013.029a18.104 18.104 0 0 0-1.231 5.83l-.275 7.082v.196c-.491.19-1.266.737-1.288 2.325-.033 2.325 4.058 1.549 4.058 1.549 4.091 0 4.121-4.265 4.121-4.265s.132-3.91.324-6.526c.186-2.528-.561-2.075-.613-2.041v-.009l.014-.201.508-7.676s3.767-12.794 4.352-15.249c.415-1.741.242-6.996.105-9.905 0-.134 0-.261-.017-.385a30.664 30.664 0 0 1 2.613-.115h.189s-.195-20.548-.681-28.301c-.486-7.754-1.266-14.83-3.217-16.963-1.176-1.287-2.816-5.266-3.932-8.213a41.317 41.317 0 0 0 7.212 2.367c6.171 1.293 5.328-4.072 5.328-4.072l-.627-10.145h.041a51.533 51.533 0 0 0-.681-7.932c-.324-2.011-.824-4.091-1.588-5.778.502-.192.997-.405 1.487-.615h.001c.164-.071.327-.142.49-.21 1.676-.74 3.572-1.792 3.808-3.602h-.082c.031-.127.052-.256.063-.385Zm-15.449 118.354.06-.897-.06 7.363v-6.466Zm-22.801-103.678c.017 1.048-.024 2.864-.085 4.875l-1.959-2.619 1.965-3.192.079.936Zm27.074 9.273.005.002h-.011l.006-.002Zm-.968-3.823-.274.275a14.738 14.738 0 0 0-2.017 2.499l3.259 1.049c.105-.025 1.444-.37.324-1.619a5.577 5.577 0 0 1-1.113-2.24l-.179.036Zm0 0 .151-.143-.093.022-.159.143.101-.022Z" fill="url(#e)"/><path d="m231 214-.462 7-2.921-.587L227 217.5l4-3.5Z" fill="#A27772"/><path opacity=".1" d="m231 214-.462 7-2.921-.587L227 217.5l4-3.5Z" fill="#000"/><path d="m239 221.23 3.848.77 2.846-2.437v-6.862l.062-.938v-.028l.015-.198.517-7.619s3.848-12.698 4.446-15.127c.424-1.73.247-6.948.108-9.83a133.356 133.356 0 0 0-.108-1.972L242.242 175l-.18 6.326-.62 22.114a11.862 11.862 0 0 1-.871 4.112l-.028.074a17.442 17.442 0 0 0-1.233 5.795l-.284 7.028v.195l-.026.586Z" fill="#CC818C"/><path opacity=".1" d="M246 212.005v.355l.025-.36-.025.005ZM239 222.235l4.024.765 2.976-2.421V220a.774.774 0 0 1-.429.626l-.041.022a8.62 8.62 0 0 1-4.518.819l-1.572-.123c-.141.015-.28.046-.413.093v.194l-.027.604Z" fill="#000"/><path d="m244.92 220.2.037-.022a.794.794 0 0 0 .378-.687l.057-7.438s.762-.573.58 2.041c-.183 2.614-.306 6.521-.306 6.521s-.028 4.262-3.861 4.262c0 0-3.834.772-3.805-1.551.029-2.323 1.584-2.42 1.584-2.42l1.375.127a6.696 6.696 0 0 0 3.961-.833Z" fill="#B07473"/><path d="M220.004 220.025c.098 1.657 5.082.7 5.082.7l3.355-6.377s2.795-2.107 1.398-3.956a2.849 2.849 0 0 1-.207-.315v-.016c-.031-.049-.056-.099-.084-.151-1.006-1.953-.512-5.157-.512-5.157s1.303-9.301 1.761-11.764c.322-1.737.191-7.425.082-10.609-.042-1.321-.082-2.213-.082-2.213l-8.28-2.167v2.416c-.016 1.997-.078 4.793-.279 6.609-.358 3.095.914 13.332.914 13.332l.439 9.318a8.503 8.503 0 0 1-1.099 4.522c-1.04 1.861-2.393 4.479-2.488 5.639a1.193 1.193 0 0 0 0 .189Z" fill="#CC818C"/><path opacity=".1" d="M220 220.018c.096 1.669 4.97.705 4.97.705l3.28-6.422s2.734-2.122 1.367-3.984a2.833 2.833 0 0 1-.202-.317c-.044.973-1.094 3.4-1.094 3.4s-2.709 5.463-3.553 6.714c-.845 1.251-4.607-.231-4.746-.275-.012.059-.02.118-.022.179Z" fill="#000"/><path d="M228.783 210.009s1.605-.378 1.129 3.865a2.747 2.747 0 0 1-1.275 2.425c-1.148.734-2.924 2.309-3.82 5.374a2.926 2.926 0 0 1-2.23 2.859c-1.45.342-3.259.644-4.305.347-1.949-.556-1.096-1.909-1.096-1.909l2.236-2.689s3.896 1.556 4.76.291c.863-1.264 3.562-6.771 3.562-6.771s1.526-3.437 1.039-3.792Z" fill="#B07473"/><path opacity=".1" d="m242.163 176-.163 7c2.075-.234 3.537-.563 3.791-1.023.542-.989 2.523-1.409 4.209-1.579-.052-1.309-.099-2.182-.099-2.182L242.163 176ZM222 181.193c.205-.386.505-.721.874-.979.843-.434.752 2.779.752 2.779s2.794.025 6.374-.018c-.04-1.201-.078-2.008-.078-2.008L222.003 179s.01.916-.003 2.193Z" fill="#000"/><path d="M220.863 181.999s.966-2.585 1.832-3.06c.866-.475.775 3.054.775 3.054s21.23.191 22.292-1.433c1.063-1.624 7.238-1.526 7.238-1.526s-.193-20.238-.676-27.875c-.483-7.637-1.255-14.605-3.184-16.704-1.25-1.364-3.035-5.756-4.123-8.687-.598-1.603-.993-2.768-.993-2.768l-20.264 1.146-.166 1.622-2.152 21.289s-.276 23.473-1.159 28.828.58 6.114.58 6.114Z" fill="#6074F9"/><g opacity=".1" fill="#000"><path d="M244.126 181.319c1.056-1.642 7.213-1.546 7.213-1.546s-.193-20.502-.674-28.238c-.481-7.737-1.251-14.796-3.173-16.922-1.246-1.383-3.025-5.831-4.109-8.801-.5-1.363-.858-2.414-.96-2.715l1.568-.089s.393 1.181.99 2.804c1.1 2.97 2.863 7.424 4.108 8.801 1.925 2.126 2.693 9.185 3.174 16.922.481 7.736.663 28.224.663 28.224s-6.155-.099-7.211 1.56c-.905 1.405-16.475 1.468-20.996 1.457 5.797-.028 18.582-.202 19.407-1.457ZM221.128 179.66c.39-.219.585.387.682 1.106a15.752 15.752 0 0 0-.911 1.98s-.55-.302-.77-1.831c.306-.544.66-1.064.999-1.255Z"/></g><path d="M226.923 72.937c-1.361 1.933.016 4.678-1.444 6.556-.483.621-1.225 1.064-1.728 1.672-.933 1.13-.895 2.663-.437 3.992.458 1.33 1.286 2.536 1.854 3.829.246.557.445 1.19.19 1.747-.177.387-.536.68-.836 1.017-.937 1.09-.964 2.605-.461 3.886.504 1.282 1.471 2.394 2.412 3.475.375.43.849.9 1.473.889.329-.028.647-.137.927-.318 2.222-1.217 3.908-3.277 4.707-5.754.675-2.329.533-4.832-.402-7.063-.804-1.97-2.111-3.859-2.122-5.943 0-1.652.817-3.23.962-4.876.177-1.998-.962-5.174-3.282-6.046.153 1.29-1.112 1.956-1.813 2.937Z" fill="#585268"/><path opacity=".1" d="M226.923 72.937c-1.361 1.933.016 4.678-1.444 6.556-.483.621-1.225 1.064-1.728 1.672-.933 1.13-.895 2.663-.437 3.992.458 1.33 1.286 2.536 1.854 3.829.246.557.445 1.19.19 1.747-.177.387-.536.68-.836 1.017-.937 1.09-.964 2.605-.461 3.886.504 1.282 1.471 2.394 2.412 3.475.375.43.849.9 1.473.889.329-.028.647-.137.927-.318 2.222-1.217 3.908-3.277 4.707-5.754.675-2.329.533-4.832-.402-7.063-.804-1.97-2.111-3.859-2.122-5.943 0-1.652.817-3.23.962-4.876.177-1.998-.962-5.174-3.282-6.046.153 1.29-1.112 1.956-1.813 2.937ZM244 143c-2.92.158-5.667 1.436-8.222 2.883-2.556 1.447-5.028 3.099-7.778 4.117M241 149a11.37 11.37 0 0 0-7.192 3.555c-.672.724-1.252 1.538-1.953 2.232A8.675 8.675 0 0 1 228 157M242 154a12.862 12.862 0 0 0-5.902 3.523c-.433.462-.833.96-1.261 1.419-2.341 2.475-5.646 3.809-8.837 5.058" fill="#000"/><path d="M242.094 84.137a59.8 59.8 0 0 0 .577 6.816c.258 1.61.626 3.043 1.153 3.68 1.536 1.865-7.493 4.367-7.493 4.367L231 94.793s4.227-3.975 2.258-7.854c-1.97-3.879 8.836-2.802 8.836-2.802Z" fill="#CC818C"/><path opacity=".1" d="M224 126h22c-.615-1.737-1.02-3-1.02-3l-20.81 1.243L224 126Z" fill="#000"/><path d="M222.182 125h22.908c-.643-2.311 0-4.452.919-6.095a13.446 13.446 0 0 1 2.399-3.125l.157-.142 8.004-1.781.431-.094s.063-14.598-5.084-16.602c-5.148-2.003-8.239-4.71-8.239-4.71l-7.077 2.195L231.386 92c-1.672 1.81-6.113 1.108-6.113 1.108-7.273.831-7.273 6.33-7.273 6.33s4.248 9.95 4.571 9.95c.323 0-.389 15.612-.389 15.612Z" fill="#67647E"/><path opacity=".1" d="M230 116s-4.477-1.091-6-3l6 3ZM254.189 110 249 114.049a7.9 7.9 0 0 0 .172.951l.151-.128 7.677-1.618-2.811-3.254ZM240 123.428s1.181.681 2.988 1.572h3.098c-.64-2.345 0-4.519.914-6.186L241.527 117c1.867 1.772-1.527 6.428-1.527 6.428Z" fill="#000"/><path d="m221.751 97-3.249 1.754-3.185 8.062s-3.313 8.843-2.99 11.185c0 0-1.168 5.524.911 6.5l5.423 2.454a.5.5 0 0 0 .649-.694c-.772-1.464-1.619-3.751-.279-5.02l-1.56-3.248 5.648-9.225 1.881-3.174L221.751 97Z" fill="#67647E"/><path opacity=".1" d="M229.031 113.221c.265 1.151 1.172 2.921 4.162 3.589l3.291 2.834 3.491 1.677 1.421.679.604-4.595-1.37-.791-1.591-.92s-3.601-6.887-9.308-3.977c-.54.265-.831.891-.7 1.504Z" fill="#000"/><path d="M229.031 113.217c.265 1.152 1.171 2.921 4.161 3.589l3.292 2.838 3.491 1.677 1.421.679.604-4.596-1.37-.788-1.591-.922s-3.602-6.885-9.308-3.978c-.539.265-.83.889-.7 1.501Z" fill="#CC818C"/><circle opacity=".1" cx="235" cy="82" r="8" fill="#000"/><circle cx="235" cy="82" r="8" fill="#CC818C"/><path opacity=".1" d="M240.551 99 238 94.422s3.752-1.39 4.024-3.004c.272-1.615 3.594 1.89 2.874 3.051-.72 1.162-4.347 4.531-4.347 4.531Z" fill="#000"/><path d="M240.551 99 238 94.422s3.752-1.39 4.024-3.004c.272-1.615 3.594 1.892 2.874 3.051-.72 1.159-4.347 4.531-4.347 4.531Z" fill="#67647E"/><path d="M221.061 111.782 235 130.236s-5.135 2.747-12.222-2.178l-3.066-3.584L211 110l10.061 1.782Z" fill="#F6F8FB"/><path d="m217.323 121.673 1.203-.032s7.35-7.286 9.153-3.6c1.803 3.686-4.577 7.124-4.577 7.124l-1.94 1.079-2.544.756-1.618-2.218.323-3.109Z" fill="#CC818C"/><path opacity=".1" d="M219.864 126.261c.114.468.223.985.032 1.421a.52.52 0 0 1-.225.272.5.5 0 0 1-.272.042c-.654-.062-1.263-.398-1.703-.94a8.65 8.65 0 0 1-1.106-1.778c-.337-.65-.687-1.376-.565-2.116.133-.811.782-1.373 1.402-1.814 1.252-.922 1.282.151 1.567 1.336l.87 3.577Z" fill="#000"/><path d="M218.864 126.261c.114.468.223.985.032 1.421a.52.52 0 0 1-.225.272.5.5 0 0 1-.272.042c-.654-.062-1.263-.398-1.703-.94a8.65 8.65 0 0 1-1.106-1.778c-.337-.65-.687-1.376-.565-2.116.133-.811.782-1.373 1.402-1.814 1.252-.922 1.282.151 1.567 1.336l.87 3.577Z" fill="#67647E"/><path opacity=".1" d="m223 109.077 1-1.077-.876 2-.124-.923ZM240 121.369l1.403.631.597-4.268-1.353-.732c.924 1.054.115 3.011-.647 4.369ZM247 115.974s-4.916.278-7-.974l7 .974Z" fill="#000"/><g opacity=".1" fill="#000"><path d="M246.264 118.705a13.454 13.454 0 0 1 2.379-3.102c.226-.142.46-.271.701-.385l7.384-1.523.427-.094s.065-14.49-5.038-16.478a30.755 30.755 0 0 1-7.956-4.507l.56-.173s3.061 2.692 8.162 4.675c5.101 1.983 5.043 16.483 5.043 16.483h-.766l-7.559 1.455-.427.41a14.64 14.64 0 0 0-2.415 3.209 8.093 8.093 0 0 0-.632 6.083h-.782c-.629-2.293.019-4.419.919-6.053ZM226.109 93.15c.123-.023.241-.048.367-.067.518.099 1.039.156 1.562.173a10.54 10.54 0 0 1-1.929-.106ZM236.935 94.62l-4.672-2.367c.097-.077.189-.16.274-.25l4.874 2.475-.476.143Z"/></g><path d="m255.063 110 3.238 3.946.66 10.71s.85 5.453-5.417 4.14c-6.268-1.314-13.544-5.389-13.544-5.389s3.502-4.667 1.587-6.44l8.985 2.892s1.518-.33.328-1.643c-1.19-1.314-1.4-3.681-1.4-3.681l5.563-4.535Z" fill="#67647E"/><path opacity=".1" d="m255 121 1 2c-.524-.28-.912-1.055-1-2ZM252 120l3 3.66-1.498.34-1.502-4ZM226.137 77.495c-.295-.728-.071-1.57.274-2.27.345-.7.84-1.338 1.095-2.08.397-1.107.274-2.348.706-3.439.758-1.91 2.913-2.769 4.845-3.414.57-.19 1.177-.385 1.763-.243.772.188 1.289.905 1.916 1.384 2.623 1.977 6.885-.2 9.419 1.894.972.8 1.443 2.085 1.588 3.342.145 1.257 0 2.534-.014 3.802-.041 2.215.367 4.646 2.012 6.116.496.443 1.079.778 1.561 1.235.481.457.862 1.108.777 1.764a6.06 6.06 0 0 1-.274.894c-.328 1.158.159 2.385.753 3.428 1.774 3.102 4.897 5.657 8.442 5.73-.238 1.807-2.094 2.857-3.742 3.599-2.099.944-4.306 1.872-6.6 1.753-2.294-.119-4.686-1.604-5.094-3.877-.14-.784-.12-1.744-.794-2.157-.405-.25-.93-.185-1.368-.374-.633-.277-.948-.98-1.156-1.644a14.988 14.988 0 0 1-.681-4.22c-.028-1.698.197-3.55-.756-4.948-.881-1.293-2.447-1.939-3.462-3.14-.937-1.108-1.958-2.431-3.493-2.642-2.064-.302-6.46 2.62-7.717-.493Z" fill="#000"/><path d="M226.137 77.495c-.295-.728-.071-1.57.274-2.27.345-.7.84-1.338 1.095-2.08.397-1.107.274-2.348.706-3.439.758-1.91 2.913-2.769 4.845-3.414.57-.19 1.177-.385 1.763-.243.772.188 1.289.905 1.916 1.384 2.623 1.98 6.885-.2 9.419 1.894.972.803 1.443 2.085 1.588 3.342.145 1.257 0 2.534-.014 3.802-.041 2.215.367 4.646 2.012 6.116.496.443 1.079.778 1.561 1.235.481.457.862 1.108.777 1.764-.068.306-.16.606-.274.897-.328 1.155.159 2.384.753 3.425 1.774 3.102 4.897 5.657 8.442 5.73-.238 1.807-2.094 2.857-3.742 3.599-2.099.947-4.306 1.872-6.6 1.753-2.294-.119-4.686-1.604-5.094-3.89-.14-.784-.12-1.745-.794-2.158-.405-.249-.93-.185-1.368-.373-.633-.277-.948-.98-1.156-1.645a14.987 14.987 0 0 1-.681-4.22c-.028-1.697.197-3.55-.756-4.948-.881-1.293-2.447-1.939-3.462-3.14-.937-1.108-1.958-2.431-3.493-2.642-2.064-.274-6.46 2.633-7.717-.479Z" fill="#585268"/><path opacity=".1" d="M231.791 98 237 94.46s-3.565-1.618-3.991-2.998c-.426-1.38-3.278.655-2.988 1.894.29 1.239 1.77 4.644 1.77 4.644Z" fill="#000"/><path d="M231.791 98 237 94.46s-3.565-1.618-3.991-2.998c-.426-1.38-3.278.655-2.988 1.894.29 1.239 1.77 4.644 1.77 4.644Z" fill="#67647E"/><circle opacity=".1" cx="237.5" cy="97.5" r=".5" fill="#000"/><circle opacity=".1" cx="237.5" cy="100.5" r=".5" fill="#000"/><circle opacity=".1" cx="237.5" cy="102.5" r=".5" fill="#000"/><g opacity=".1" fill="#000"><path d="M228.157 72.241c.38-1.034.299-2.193.653-3.233-.162.23-.298.479-.404.74-.441 1.087-.319 2.328-.72 3.428 0 .02-.02.042-.028.064a6.04 6.04 0 0 0 .499-.999ZM258.517 98.236c-2.14.943-4.39 1.865-6.731 1.746-2.341-.118-4.775-1.597-5.191-3.876-.142-.78-.122-1.738-.809-2.149-.413-.248-.949-.185-1.395-.372-.648-.276-.966-.977-1.178-1.639a14.653 14.653 0 0 1-.695-4.21c-.028-1.69.198-3.536-.77-4.93-.899-1.287-2.495-1.93-3.53-3.127-.958-1.104-1.996-2.422-3.564-2.632-2.149-.276-6.634 2.62-7.912-.48a2.409 2.409 0 0 1 .081-1.793 8.738 8.738 0 0 0-.262.466c-.363.698-.592 1.537-.279 2.262 1.281 3.1 5.763.19 7.914.48 1.566.21 2.607 1.537 3.564 2.632 1.035 1.186 2.629 1.84 3.527 3.13.972 1.38.746 3.24.773 4.928.023 1.428.257 2.845.693 4.207.212.659.533 1.379 1.177 1.638.447.185.983.124 1.396.373.683.408.667 1.379.806 2.146.416 2.278 2.855 3.76 5.194 3.878 2.338.119 4.59-.805 6.728-1.749 1.54-.675 3.257-1.616 3.717-3.155-.748 1.012-2.054 1.699-3.254 2.226Z"/></g></svg>